<?xml version="1.0" standalone="no"?>
<!DOCTYPE svg PUBLIC "-//W3C//DTD SVG 1.1//EN" "http://www.w3.org/Graphics/SVG/1.1/DTD/svg11.dtd" >
<svg xmlns="http://www.w3.org/2000/svg" xmlns:xlink="http://www.w3.org/1999/xlink" version="1.1">
<metadata>
Created by FontForge 20230101 at Sat Jul  4 11:26:25 2020
 By Unknown
</metadata>
<defs>
<font id="Meows-Regular" horiz-adv-x="1061" >
  <font-face 
    font-family="Meows"
    font-weight="400"
    font-stretch="normal"
    units-per-em="2048"
    panose-1="2 11 6 3 5 3 2 2 2 4"
    ascent="1638"
    descent="-410"
    x-height="909"
    cap-height="1599"
    bbox="-64 -635 1384 1627"
    underline-thickness="0"
    underline-position="0"
    unicode-range="U+000D-007E"
  />
<missing-glyph horiz-adv-x="1024" 
 />
    <glyph glyph-name=".notdef" horiz-adv-x="1024" 
 />
    <glyph glyph-name=".null" horiz-adv-x="0" 
 />
    <glyph glyph-name="uni000D" unicode="&#xd;" horiz-adv-x="512" 
 />
    <glyph glyph-name="space" unicode=" " horiz-adv-x="635" 
 />
    <glyph glyph-name="001" horiz-adv-x="0" 
 />
    <glyph glyph-name="002" horiz-adv-x="2048" 
 />
    <glyph glyph-name="A" unicode="A" horiz-adv-x="1387" 
d="M501 1072l175 487q3 20 18.5 30.5t35.5 10.5q30 0 44 -35l536 -1497q4 -11 4 -23q0 -30 -35 -43q-12 -3 -21 -3q-32 0 -44 34l-176 490q-7 -3 -17 -3h-309q-51 0 -51 51t51 51h291l-277 773l-128 -357q-15 -35 -43 -35q-20 0 -39 11.5t-19 34.5q0 11 4 23zM141 66
l170 475q14 36 42 36q20 0 39 -12t19 -34q0 -12 -4 -24l-170 -476q-12 -35 -43 -35q-5 0 -10.5 1t-11.5 3q-36 14 -36 42q0 9 5 24zM527 809q16 0 45 -9.5t57.5 -25.5t49.5 -36t21 -40q0 -17 -11 -29.5t-28 -12.5q-8 0 -16 1t-16 1q-74 -3 -78 -43q-3 -26 -23.5 -43
t-46.5 -17q-16 0 -24.5 10t-13 24t-5.5 30t-1 28q0 22 3 50t13 53t27.5 42t46.5 17zM368 1030l207 551q6 16 20 16q3 0 11 -2q16 -7 16 -21q0 -2 -2 -10l-208 -551q-6 -17 -18 -17q-6 0 -12 3q-16 6 -16 20q0 7 2 11zM55 134l167 468q5 17 19 17q3 0 11 -2q16 -7 16 -22
q0 -6 -1 -9l-167 -468q-6 -17 -20 -17q-10 0 -18.5 5t-8.5 16q0 4 2 12zM590 871q0 65 42 63q27 0 33.5 -21.5t6.5 -42.5q0 -63 -42 -63q-27 1 -33.5 21.5t-6.5 42.5zM484 976q12 0 22 -9.5t17 -23t11 -28t4 -25.5q0 -17 -11 -28t-28 -11q-12 0 -22 9.5t-17 22.5t-11 28
t-4 25q0 17 11 28.5t28 11.5zM359 902q11 0 23.5 -8.5t23 -20.5t17.5 -25.5t7 -24.5q0 -14 -11.5 -25.5t-25.5 -11.5q-11 0 -23.5 8.5t-23 20.5t-17.5 25.5t-7 24.5q0 14 11.5 25.5t25.5 11.5zM324 762q11 0 25.5 -5.5t27 -14.5t21.5 -20t9 -23q0 -15 -10.5 -26.5
t-25.5 -11.5q-10 0 -25 5.5t-28 14.5t-22.5 20t-9.5 23q0 15 11.5 26.5t26.5 11.5z" />
    <glyph glyph-name="B" unicode="B" horiz-adv-x="1170" 
d="M156 1547q0 51 51 51h257q121 -2 202 -44q45 -24 81.5 -59.5t62 -79t39.5 -93t14 -100.5q0 -45 -11 -89.5t-32 -84.5t-50.5 -74t-67.5 -60q85 -31 155.5 -78t123.5 -122q42 -59 60 -118.5t18 -131.5q0 -73 -26.5 -137t-71 -116.5t-103.5 -93t-124 -66.5
q-60 -24 -123.5 -35.5t-130.5 -11.5h-22.5t-22.5 1h-1l-227 1q-48 0 -51 48v509q0 51 51 51q52 0 52 -51v-455l176 -1h6q12 -1 23.5 -1.5t23.5 -0.5q54 0 110 11.5t108.5 33.5t98.5 55t80 76t53 91.5t19 103.5q0 93 -59 179q-66 91 -168 138t-212 53q-6 0 -8 1q-44 3 -47 47
q0 2 -0.5 5t-0.5 5q0 40 48 45q53 5 98.5 28.5t79.5 60t53.5 84t19.5 100.5q0 78 -41 144q-46 74 -109 101.5t-148 28.5h-204v-311q0 -51 -52 -51q-51 0 -51 51v362zM260 917q16 0 45 -10t57.5 -26t50 -36t21.5 -40q0 -17 -11 -29t-29 -12q-8 0 -16 1t-16 1q-74 -3 -78 -43
q-3 -27 -23 -43.5t-46 -16.5q-16 0 -25 10t-13.5 24t-5.5 30t-1 28q0 22 3 50t13 53t27.5 42t46.5 17zM76 721q24 0 24 -24v-657q0 -24 -24 -24t-24 24v657q0 24 24 24zM52 1138v415q0 24 24 24t24 -24v-415q0 -24 -24 -24t-24 24zM365 1043q26 -1 33 -22t7 -42
q0 -64 -42 -63q-40 0 -40 59q0 23 7 45.5t35 22.5zM91 1010q12 0 24.5 -8.5t23 -20.5t17.5 -26t7 -25q0 -15 -12 -25.5t-26 -10.5q-11 0 -23.5 8.5t-23 21t-17.5 26.5t-7 24q0 14 11.5 25t25.5 11zM57 870q11 0 25.5 -5.5t27.5 -14.5t22 -20.5t9 -23.5q0 -8 -5 -18
q-12 -18 -32 -18q-11 0 -25.5 5t-28 14t-22.5 20t-9 23q0 15 11.5 26.5t26.5 11.5zM216 1085q12 0 22.5 -9.5t17.5 -23t11 -28t4 -25.5q0 -17 -11 -28t-28 -11q-12 0 -22 9.5t-17 22.5t-11 28t-4 25q0 17 10.5 28.5t27.5 11.5z" />
    <glyph glyph-name="C" unicode="C" horiz-adv-x="1246" 
d="M194 836q51 0 51 -51q2 -103 33 -199.5t87.5 -179t134.5 -147t174 -103.5q130 -55 263 -55q69 0 139 15q5 1 8.5 1.5t7.5 0.5q23 0 34 -17.5t11 -37.5q0 -38 -42 -47q-81 -15 -160 -15q-99 0 -193.5 24t-179 70t-157 111.5t-127.5 148.5q-66 96 -99 204.5t-36 224.5
q0 51 51 52zM442 1419q107 85 232 130t262 45q80 0 159 -15q43 -8 43 -45q0 -22 -11.5 -39t-35.5 -17q-10 0 -15 1q-35 7 -68.5 10.5t-68.5 3.5q-57 0 -115.5 -10.5t-114.5 -30t-107.5 -48t-95.5 -64.5q-18 -15 -34 -15q-20 0 -38 23q-15 17 -15 33q0 21 23 38zM48 883
q3 12 10 15.5t18 3.5q12 -4 15.5 -11t3.5 -18q-18 -84 -18 -164q0 -166 76 -319q56 -117 141.5 -203t203.5 -141q15 -7 15 -18q0 -10 -7 -18.5t-17 -8.5q-3 0 -11 2q-251 122 -368 366q-81 167 -81 342q0 87 19 172zM314 1148q16 0 45 -9.5t57.5 -25.5t49.5 -36t21 -40
q0 -17 -10.5 -29.5t-28.5 -12.5q-7 0 -15 1t-17 1q-74 -3 -78 -43q-3 -27 -23 -43.5t-47 -16.5q-15 0 -23.5 9t-13 22.5t-6 28t-1.5 26.5q0 21 3 50t13 55.5t27.5 44.5t46.5 18zM190 1369q69 100 160 163.5t211 87.5q2 0 3.5 0.5t3.5 0.5q11 0 16 -9t5 -18q0 -16 -20 -21
q-109 -25 -192.5 -83.5t-146.5 -147.5q-9 -12 -18 -12q-8 0 -18 7.5t-10 16.5q0 8 6 15zM419 1273q27 0 33.5 -21.5t6.5 -42.5q0 -63 -42 -63q-40 1 -40 60q0 22 7 44.5t35 22.5zM111 1101q11 0 25.5 -6t27.5 -15t22.5 -20.5t9.5 -22.5q0 -14 -12 -25.5t-26 -11.5
q-10 0 -24.5 5.5t-28 14.5t-22.5 20t-9 23q0 16 10.5 27t26.5 11zM271 1315q12 0 22 -9.5t17 -23t11 -28t4 -25.5q0 -17 -11 -28t-28 -11q-12 0 -22 9.5t-17 22.5t-11 28t-4 25q0 17 11 28.5t28 11.5zM146 1241q11 0 23.5 -8.5t23 -20.5t17.5 -25.5t7 -24.5
q0 -14 -11.5 -25.5t-25.5 -11.5q-11 0 -23.5 8.5t-23 20.5t-17.5 25.5t-7 24.5q0 14 11.5 25.5t25.5 11.5z" />
    <glyph glyph-name="D" unicode="D" horiz-adv-x="1300" 
d="M160 1540q0 51 51 51h226q10 1 19 1h19q180 0 342 -93q93 -54 165 -130.5t121 -168.5t74 -195t25 -210q-1 -155 -54.5 -298t-149.5 -253t-229.5 -175.5t-293.5 -65.5h-21.5t-21.5 1h-221q-51 0 -51 51v638q0 51 51 51t51 -51v-587h177q11 -1 20.5 -1h20.5q147 0 282 77
q81 47 144 113.5t106 147t65.5 170t22.5 182.5t-21.5 183t-64 170t-105 147.5t-143.5 115.5q-137 79 -287 79h-18t-18 -1q-2 0 -3.5 -0.5t-2.5 -0.5h-175v-172q0 -51 -51 -51t-51 51v224zM251 1044q13 0 30.5 -5.5t35 -13t33.5 -16t26 -15.5q17 -11 32.5 -24t15.5 -35
q0 -19 -9.5 -31.5t-29.5 -12.5q-8 0 -16 1t-17 1q-75 -3 -78 -43q-2 -27 -22.5 -43.5t-46.5 -16.5q-15 0 -24 9t-13.5 22.5t-6 28t-1.5 26.5q0 22 3.5 51t13 55t27.5 44t47 18zM74 828q24 0 24 -24v-747q0 -24 -24 -24t-24 24v747q0 24 24 24zM74 1572q24 0 24 -23v-340
q0 -24 -24 -24t-24 24v340q0 23 24 23zM193 1209q10 2 13 2q13 0 23.5 -9t17.5 -22t10.5 -27.5t3.5 -25.5q0 -18 -11 -29t-28 -11q-12 0 -22 9.5t-17 23t-11 28.5t-4 25q0 27 25 36zM82 1137q11 0 23.5 -8.5t23 -20.5t17.5 -25.5t7 -24.5q0 -14 -11.5 -25.5t-25.5 -11.5
q-10 0 -23 8.5t-23.5 21t-18 26t-7.5 23.5q0 14 12 25.5t26 11.5zM314 1107q0 64 42 62q40 0 40 -63q-1 -64 -42 -63q-27 0 -33.5 21.5t-6.5 42.5zM48 997q18 0 44 -14q39 -24 39 -50q0 -15 -10.5 -26t-25.5 -11q-11 0 -25.5 5.5t-27.5 14.5t-22 20t-9 23q0 16 10.5 27
t26.5 11z" />
    <glyph glyph-name="E" unicode="E" horiz-adv-x="1094" 
d="M155 648q0 51 51 51t51 -51v-540h665q51 0 51 -51t-51 -51h-716q-51 0 -51 51v591zM157 1538v6q0 51 51 51h716q51 0 51 -51t-51 -51h-667v-248q0 -51 -51 -51t-51 51v278q0 2 0.5 6t1.5 9zM277 994q16 0 45 -9.5t57.5 -25.5t49.5 -36t21 -40q0 -17 -10.5 -29t-27.5 -12
q-8 0 -16 1t-17 1q-74 -3 -78 -43q-3 -26 -23 -43.5t-46 -17.5q-16 0 -25 10t-13.5 24t-5.5 30t-1 28q0 22 3 50t13 53t27.5 42t46.5 17zM545 900h321q51 0 51 -51t-51 -51h-321q-52 0 -52 51t52 51zM41 64v701q0 24 24 24t24 -24v-701q0 -24 -24 -24t-24 24zM41 1557
q0 24 24 24t24 -24v-402q0 -24 -24 -24t-24 24v402zM382 1120q26 -1 33 -22t7 -42q0 -64 -42 -63q-40 0 -40 59q0 23 7 45.5t35 22.5zM108 1087q11 0 23.5 -8.5t23.5 -20.5t18 -26t7 -25q0 -15 -12 -25.5t-26 -10.5q-11 0 -23.5 8.5t-23 20.5t-17.5 26t-7 24q0 14 11.5 25.5
t25.5 11.5zM74 947q18 0 44 -14q40 -25 40 -49q0 -9 -6 -18q-10 -19 -31 -19q-10 0 -25 5t-28 13.5t-22.5 19.5t-9.5 23q0 15 11 27t27 12zM234 1162q12 0 22 -9.5t17 -23t11 -28t4 -25.5q0 -17 -11 -28t-28 -11q-12 0 -22 9.5t-17 22.5t-11 28t-4 25q0 17 11 28.5t28 11.5z
" />
    <glyph glyph-name="F" unicode="F" horiz-adv-x="986" 
d="M151 1539q0 3 0.5 6t0.5 6q9 40 50 40l693 -1q51 0 51 -51t-51 -51l-641 1v-203q0 -51 -52 -51q-51 0 -51 51v253zM202 728q52 0 52 -51v-623q0 -51 -52 -51q-51 0 -51 51v623q0 51 51 51zM269 1030q15 0 44 -9.5t57.5 -25t50 -35t21.5 -39.5q0 -19 -9.5 -31.5
t-29.5 -12.5q-8 0 -16 1t-16 1q-74 -3 -78 -43q-3 -26 -23.5 -43t-46.5 -17q-16 0 -24.5 10t-13 24t-5.5 29.5t-1 27.5q0 22 3 50t13 53t27.5 42.5t46.5 17.5zM512 913h310q51 0 51 -51t-51 -51h-310q-51 0 -51 51t51 51zM49 54v714q0 24 24 24t24 -24v-714q0 -24 -24 -24
t-24 24zM49 1216v323q0 24 24 24t24 -24v-323q0 -24 -24 -24t-24 24zM66 983q11 0 25.5 -5.5t27 -14.5t21.5 -20t9 -23q0 -14 -10.5 -26.5t-25.5 -12.5q-10 0 -24.5 6t-28 15t-23 20t-9.5 22q0 16 11 27.5t27 11.5zM374 1155q27 0 33.5 -21.5t6.5 -42.5q0 -63 -42 -63
q-40 1 -40 60q0 22 7 44.5t35 22.5zM226 1197q12 0 22 -9t17 -22t10.5 -27.5t3.5 -25.5q0 -17 -10.5 -29t-27.5 -12q-12 0 -22 9.5t-17 22.5t-11 28t-4 25q0 18 11 29t28 11zM100 1123q11 0 23.5 -8.5t23.5 -20.5t18 -26t7 -25q0 -14 -11 -25t-25 -11q-11 0 -23.5 8.5
t-23.5 20.5t-18.5 25.5t-7.5 24.5q0 14 11.5 25.5t25.5 11.5z" />
    <glyph glyph-name="G" unicode="G" horiz-adv-x="1321" 
d="M141 916q6 44 47 44q23 0 39 -9.5t16 -36.5q0 -8 -1 -12q-6 -25 -6.5 -50.5t-0.5 -51.5q0 -136 49 -261.5t135.5 -221.5t205.5 -153t258 -57q118 0 233 48v528h-515q-51 0 -51 51q0 52 51 52h566q51 0 51 -52v-708q0 -50 -51 -50t-51 50v20q-117 -39 -234 -39
q-163 0 -300.5 65t-237 174.5t-155.5 253t-56 299.5q0 29 1.5 58.5t6.5 58.5zM439 1441q99 76 211 115t236 39q156 0 298 -68q32 -15 32 -41q0 -19 -14 -38.5t-34 -19.5q-9 0 -27 7q-64 26 -127 41.5t-129 15.5q-105 0 -203 -33.5t-180 -98.5q-19 -14 -34 -14
q-19 0 -35.5 19.5t-16.5 37.5q0 20 23 38zM24 956q0 14 6.5 18.5t18.5 4.5q13 0 17.5 -6.5t4.5 -18.5q0 -23 -1 -45.5t-1 -44.5q0 -126 19.5 -245t65.5 -224t123.5 -193.5t192.5 -154.5q13 -7 13 -19q0 -8 -6.5 -17t-15.5 -9q-7 0 -14 4q-121 72 -202.5 163.5t-131 199
t-71 230.5t-21.5 258q0 48 3 99zM331 1205q15 0 44.5 -10t58 -25.5t50 -35.5t21.5 -40q0 -17 -11 -29.5t-28 -12.5q-8 0 -16 1t-17 1q-74 -3 -78 -43q-3 -27 -23 -43.5t-47 -16.5q-15 0 -23.5 9t-13 22.5t-6 28t-1.5 26.5q0 21 3 50t13 55.5t27.5 44.5t46.5 18zM315 1472
q33 50 77 87t101 56q8 2 10 2q11 0 16.5 -9.5t5.5 -18.5q0 -13 -16 -19q-54 -20 -88 -49t-66 -75q-9 -12 -19 -12q-9 0 -17.5 7.5t-8.5 16.5q0 6 5 14zM163 1298q11 0 23.5 -8.5t23 -20.5t17.5 -25.5t7 -24.5q0 -16 -14 -28q-10 -10 -23 -10q-11 0 -23.5 8.5t-23 21
t-17.5 26.5t-7 24q0 14 11.5 25.5t25.5 11.5zM128 1158q11 0 25 -5.5t27.5 -14.5t22.5 -20t9 -23q0 -15 -10 -26.5t-26 -11.5q-11 0 -25.5 5.5t-28 14.5t-22.5 20t-9 23q0 16 10.5 27t26.5 11zM288 1372q12 0 22 -9.5t17 -23t11 -28t4 -25.5q0 -17 -11 -28t-28 -11
q-12 0 -22 9.5t-17 22.5t-11 28t-4 25q0 17 11 28.5t28 11.5zM394 1267q0 63 42 63q27 0 33.5 -21.5t6.5 -42.5q0 -63 -42 -63q-40 1 -40 64z" />
    <glyph glyph-name="H" unicode="H" horiz-adv-x="1148" 
d="M147 797q0 52 51 52h718v694q0 52 51 52t51 -52v-1492q0 -51 -51 -51t-51 51v695h-666v-695q0 -51 -52 -51q-51 0 -51 51v746zM267 1141q15 0 44 -10t57.5 -25.5t50 -35.5t21.5 -40q0 -17 -11.5 -29t-28.5 -12q-7 0 -15 0.5t-17 0.5q-75 -3 -78 -43q-2 -26 -22 -43
t-46 -17q-15 0 -24.5 9t-14 22t-6 28t-1.5 27q0 22 3.5 51t13 55t27.5 44t47 18zM39 47v852q0 24 24 24t24 -24v-852q0 -24 -24 -24t-24 24zM147 1543q0 52 51 52q52 0 52 -52v-153q0 -51 -52 -51q-51 0 -51 51v153zM39 1333v224q0 23 24 23t24 -23v-224q0 -24 -24 -24
t-24 24zM223 1308q13 0 23 -9t17 -22t10.5 -27.5t3.5 -25.5q0 -18 -11 -29t-28 -11q-12 0 -22 9.5t-17.5 23t-11.5 28.5t-4 25q0 17 12 27.5t28 10.5zM64 1095q11 0 25.5 -5.5t27 -14.5t21.5 -20.5t9 -23.5q0 -15 -10.5 -26t-25.5 -11q-10 0 -25 5t-28 13.5t-22.5 19.5
t-9.5 23q0 15 11 27.5t27 12.5zM98 1234q11 0 23.5 -8.5t23 -20.5t17.5 -26t7 -25q0 -14 -11.5 -25t-25.5 -11q-11 0 -23.5 8.5t-23 20.5t-17.5 25.5t-7 24.5q0 14 11.5 25.5t25.5 11.5zM330 1204q0 64 42 62q40 0 40 -63q-1 -64 -42 -63q-27 0 -33.5 21.5t-6.5 42.5z" />
    <glyph glyph-name="I" unicode="I" horiz-adv-x="574" 
d="M176 5q-51 0 -51 51q0 52 51 52h121v329v83.5t1 172.5q0 51 51 51t51 -51q-1 -37 -1 -60.5v-35.5v-11.5t1 -22.5v-432q-1 1 -1 -23h51q51 0 51 -52q0 -51 -51 -51h-274zM125 1548q0 51 51 51h274q51 0 51 -51t-51 -51h-51v-131.5t1 -95.5q0 -51 -51 -51t-51 51
q-1 39 -1 95.5v131.5h-121q-51 0 -51 51zM342 1021q14 0 43 -9.5t58 -25t51 -34.5t22 -38q0 -18 -10 -31.5t-30 -13.5q-8 0 -16 0.5t-16 0.5q-76 -3 -79 -43q-2 -26 -22.5 -42.5t-46.5 -16.5q-16 0 -24.5 10t-13 24t-5.5 29.5t-1 27.5q0 22 3 50t13 53t27.5 42t46.5 17z
M225 724q24 0 24 -24v-536q0 -24 -24 -24t-24 24v536q0 24 24 24zM139 975q11 0 25 -6t27.5 -15t22.5 -20.5t9 -22.5q0 -9 -6 -18q-10 -19 -30 -19q-10 0 -25 5t-28.5 13.5t-23 19.5t-9.5 23q0 15 11.5 27.5t26.5 12.5zM173 1114q11 0 23.5 -8.5t23.5 -20.5t18 -26t7 -25
q0 -15 -12 -25.5t-26 -10.5q-10 0 -23 8.5t-23.5 21t-18 26t-7.5 23.5q0 14 12 25.5t26 11.5zM447 1147q40 -1 40 -64q0 -64 -42 -63q-40 0 -40 59q0 23 7 45.5t35 22.5zM298 1189q13 0 23 -9t17 -22t10.5 -27.5t3.5 -25.5q0 -18 -10.5 -29.5t-28.5 -11.5q-12 0 -22 9.5
t-16.5 22.5t-10.5 28t-4 25q0 17 10.5 28.5t27.5 11.5zM201 1437q0 24 24 24t24 -24v-154q0 -23 -24 -23t-24 23v154zM399 587v11v-1v-10z" />
    <glyph glyph-name="J" unicode="J" horiz-adv-x="953" 
d="M133 461q27 0 37 -14.5t10 -39.5q0 -42 6.5 -76t26.5 -72q17 -35 44 -63.5t60 -48t71 -30t77 -10.5q59 0 110.5 22.5t90 60.5t61 90t22.5 110v17v258q0 51 51 51t51 -51v-253q0 -56 -9 -103.5t-35 -97.5q-51 -96 -142 -151t-200 -55q-79 0 -149.5 30t-123.5 82t-84 121
t-31 148q0 17 1.5 30.5t7 23.5t16.5 15.5t31 5.5zM556 1540q0 51 52 51h274q51 0 51 -51t-51 -51h-31v-236q0 -51 -51 -51t-51 51v236h-141q-52 0 -52 51zM775 999q15 0 44.5 -10t58 -25.5t50 -35.5t21.5 -40q0 -17 -11 -29.5t-28 -12.5q-8 0 -16 1t-17 1q-75 -3 -78 -43
q-2 -27 -23 -43.5t-47 -16.5q-15 0 -23.5 9t-13 22.5t-6 28t-1.5 26.5q0 21 3 50t13 55.5t27.5 44.5t46.5 18zM644 706q0 23 24 23t24 -23v-365q0 -24 -24 -24t-24 24v365zM646 1439q0 23 23 23q24 0 24 -23v-200q0 -24 -24 -24q-23 0 -23 24v200zM732 1166q13 0 23 -9
t17 -22t10.5 -27.5t3.5 -25.5q0 -18 -10.5 -29.5t-28.5 -11.5q-12 0 -22 9.5t-17 22.5t-11 28t-4 25q0 17 11 28.5t28 11.5zM572 952q11 0 25 -5.5t27.5 -14.5t22.5 -20t9 -23q0 -16 -10.5 -27.5t-26.5 -11.5q-11 0 -25.5 5.5t-27 14.5t-21.5 20.5t-9 23.5q0 15 10 26.5
t26 11.5zM607 1092q11 0 23.5 -8.5t23 -20.5t17.5 -25.5t7 -24.5q0 -16 -14 -28q-10 -10 -23 -10q-11 0 -23.5 8.5t-23 21t-17.5 26.5t-7 24q0 14 11.5 25.5t25.5 11.5zM838 1061q2 63 42 63q41 0 41 -64q-1 -63 -43 -63q-40 1 -40 64z" />
    <glyph glyph-name="K" unicode="K" horiz-adv-x="1018" 
d="M141 727q0 51 52 51q2 0 5 -0.5t8 -1.5q2 18 17 33t34 15t37 -20l643 -715q16 -17 16 -35q0 -19 -18.5 -36t-36.5 -17q-19 0 -37 20l-617 686v-655q0 -51 -51 -51q-52 0 -52 51v675zM445 1143l347 400q18 21 37 21t37 -17.5t18 -36.5q0 -16 -15 -34l-347 -400
q-18 -21 -37 -21q-18 0 -37 17.5t-19 35.5t16 35zM229 1084q15 0 44.5 -10t58 -25.5t50 -35.5t21.5 -40q0 -17 -11 -29.5t-28 -12.5q-8 0 -16 1t-17 1q-75 -3 -78 -43q-2 -27 -23 -43.5t-47 -16.5q-15 0 -23.5 9t-13 22.5t-6 28t-1.5 26.5q0 21 3 50t13 55.5t27.5 44.5
t46.5 18zM31 835q0 24 24 24t24 -24v-755q0 -24 -24 -24t-24 24v755zM141 1548q0 51 52 51q51 0 51 -51v-195q0 -51 -51 -51q-52 0 -52 51v195zM31 1542q0 23 24 23t24 -23v-290q0 -24 -24 -24t-24 24v290zM186 1251q13 0 23 -9t17 -22t10.5 -28t3.5 -26q0 -17 -10 -28
t-27 -11q-12 0 -22.5 9t-18 22t-11.5 27.5t-4 25.5q0 17 11 28.5t28 11.5zM-4 1018q9 19 31 19q11 0 25.5 -5.5t27.5 -14.5t22 -20.5t9 -23.5q0 -14 -12 -25.5t-26 -11.5q-10 0 -24.5 5.5t-27.5 14.5t-22 20t-9 22q0 10 6 20zM61 1177q11 0 23.5 -8.5t23 -20.5t17.5 -25.5
t7 -24.5q0 -14 -11.5 -25.5t-25.5 -11.5q-11 0 -23.5 8.5t-23.5 20.5t-18 26t-7 25q0 14 12 25t26 11zM292 1146q2 65 42 63q41 0 41 -64q-1 -64 -43 -62q-40 0 -40 63z" />
    <glyph glyph-name="L" unicode="L" horiz-adv-x="1040" 
d="M147 57v624q0 51 52 51q51 0 51 -51v-573h648q51 0 51 -51t-51 -51h-699q-52 0 -52 51zM240 1032q16 0 45 -9.5t57.5 -25.5t49.5 -36t21 -40q0 -17 -11 -29.5t-28 -12.5q-8 0 -16 1t-16 1q-74 -3 -78 -43q-3 -27 -23 -43.5t-46 -16.5q-16 0 -25 10t-13.5 24t-5.5 30
t-1 28q0 22 3 50t13 53t27.5 42t46.5 17zM37 57v725q0 24 24 24t24 -24v-725q0 -24 -24 -24t-24 24zM199 1599q51 0 51 -51v-253q0 -52 -51 -52q-52 0 -52 52v253q0 51 52 51zM58 1560q24 0 24 -24v-315q0 -24 -24 -24t-24 24v315q0 24 24 24zM345 1158q26 -1 33 -22.5
t7 -42.5q0 -63 -42 -62q-40 0 -40 59q0 23 7 45.5t35 22.5zM71 1125q12 0 24.5 -8.5t23 -20.5t17.5 -26t7 -25q0 -15 -12 -25.5t-26 -10.5q-11 0 -23.5 8.5t-23 21t-17.5 26.5t-7 24q0 14 11.5 25t25.5 11zM183 1197q8 2 13 2q13 0 23 -9.5t17 -23t11 -28t4 -25.5
q0 -17 -11 -27.5t-28 -10.5q-12 0 -22 9.5t-17 22.5t-11 28t-4 25q0 28 25 37zM5 966q13 19 33 19q17 0 43 -14q41 -25 41 -49q0 -15 -12.5 -26t-26.5 -11q-11 0 -25.5 5.5t-27 14t-21.5 20t-9 23.5q0 8 5 18z" />
    <glyph glyph-name="M" unicode="M" horiz-adv-x="1289" 
d="M163 1531q0 58 58 58q38 0 53 -35l400 -771l399 771q15 35 53 35q58 0 58 -58v-1470q0 -58 -58 -58t-58 58v1232l-338 -653q-13 -42 -61 -42q-18 0 -32.5 12.5t-19.5 29.5l-338 653v-404q0 -59 -58 -59t-58 59v642zM250 607q13 0 30.5 -5.5t35 -13t33.5 -16.5t27 -16
q16 -11 31.5 -23.5t15.5 -34.5q0 -19 -9.5 -31.5t-29.5 -12.5q-8 0 -16 1t-16 1q-76 -3 -79 -43q-2 -27 -22.5 -43.5t-46.5 -16.5q-16 0 -24.5 10t-13 24t-5.5 29.5t-1 27.5q0 22 3 50t13 53t27.5 42.5t46.5 17.5zM55 797v730q0 24 24 24t24 -24v-730q0 -24 -24 -24t-24 24z
M221 299q58 0 58 -58v-180q0 -58 -58 -58t-58 58v180q0 58 58 58zM55 53v321q0 24 24 24t24 -24v-321q0 -24 -24 -24t-24 24zM81 700q11 0 23.5 -8.5t23 -20.5t17.5 -26t7 -25q0 -16 -13 -28q-12 -9 -24 -9q-11 0 -23.5 8.5t-23 20.5t-17.5 26t-7 24q0 14 11 26t26 12z
M48 559q11 0 25.5 -5.5t27 -14t21.5 -19.5t9 -23q0 -10 -6 -19q-11 -20 -31 -20q-11 0 -25.5 5.5t-27.5 14.5t-22 20.5t-9 23.5q0 16 11 26.5t27 10.5zM355 732q40 0 40 -64q-1 -63 -42 -63q-40 0 -40 59q0 23 7 45.5t35 22.5zM207 774q13 0 23 -9t16.5 -22t10 -27.5
t3.5 -25.5q0 -18 -10.5 -29.5t-28.5 -11.5q-12 0 -22 9.5t-16.5 22.5t-10.5 28t-4 25q0 17 11 28.5t28 11.5z" />
    <glyph glyph-name="N" unicode="N" horiz-adv-x="1256" 
d="M151 1538q0 58 58 58q27 0 47 -23l771 -923v888q0 58 58 58t58 -58v-1041q1 -2 1 -7t-1 -8v-420q0 -58 -58 -58t-58 58v407l-760 910v-346q0 -58 -58 -58t-58 58v505zM151 386q0 58 58 58t58 -58v-324q0 -58 -58 -58t-58 58v324zM257 749q12 0 29.5 -5.5t35.5 -14
t34.5 -17.5t26.5 -15q16 -11 31.5 -23.5t15.5 -34.5q0 -19 -9.5 -31.5t-29.5 -12.5q-8 0 -16 1t-16 1q-76 -3 -79 -43q-2 -27 -22.5 -43.5t-46.5 -16.5q-16 0 -24.5 10t-13 24t-5.5 29.5t-1 27.5q0 21 3 49.5t13 54t27.5 43t46.5 17.5zM71 1560q24 0 24 -24v-608
q0 -24 -24 -24q-23 0 -23 24v608q0 24 23 24zM48 67v457q0 24 23 24q24 0 24 -24v-457q0 -24 -24 -24q-23 0 -23 24zM53 701q11 0 25.5 -5.5t27.5 -14.5t22.5 -20.5t9.5 -22.5q0 -10 -6 -19q-11 -20 -31 -20q-11 0 -25.5 5.5t-27.5 14.5t-22 20.5t-9 23.5q0 15 10 26.5
t26 11.5zM360 746q-27 0 -33.5 21.5t-6.5 42.5q0 63 42 63q40 -1 40 -64t-42 -63zM214 915q12 0 22 -9t17 -22t10.5 -27.5t3.5 -25.5q0 -18 -10.5 -29.5t-28.5 -11.5q-12 0 -22 9.5t-16.5 22.5t-10.5 28t-4 25q0 18 11 29t28 11zM88 840q11 0 24 -8.5t23.5 -20.5t17.5 -25.5
t7 -24.5q0 -16 -14 -28q-12 -9 -24 -9q-11 0 -23.5 8.5t-23 21t-17.5 26.5t-7 24q0 14 11.5 25t25.5 11z" />
    <glyph glyph-name="O" unicode="O" horiz-adv-x="1321" 
d="M211 780q44 0 49 -47q8 -136 44.5 -248.5t104.5 -205.5q126 -172 292 -172q177 0 307 195q136 203 136 498q0 293 -136 498q-130 195 -307 195q-47 0 -90 -15t-81 -40t-70 -58t-58 -70q-18 -25 -39 -25q-19 0 -37.5 16t-18.5 35q0 16 12 32q33 48 74 89.5t89.5 72
t103.5 48t115 17.5q117 0 217 -64.5t175 -176.5q153 -231 153 -554q0 -325 -153 -555q-160 -240 -392 -240q-216 0 -374 214q-153 207 -169 507q0 28 12 41t41 13zM266 1108q16 0 45 -9.5t57.5 -25.5t49.5 -36t21 -40q0 -17 -11 -29t-28 -12q-8 0 -16 0.5t-16 0.5
q-74 -3 -78 -43q-3 -27 -23.5 -43t-46.5 -16q-16 0 -24.5 10t-13 24t-5.5 29.5t-1 27.5q0 22 3 50t13 53t27.5 42t46.5 17zM49 866q1 21 25 21q13 0 17.5 -7.5t4.5 -18.5q0 -25 -2.5 -49t-2.5 -49q0 -90 17 -181.5t49.5 -179t80 -167.5t108.5 -147q8 -10 8 -16
q0 -9 -9 -17.5t-18 -8.5q-8 0 -17 10q-128 149 -197 330t-69 378q0 26 1.5 51t3.5 51zM170 1366q18 31 41.5 64t51 64t58.5 57t63 42q8 3 13 3q9 0 16.5 -8.5t7.5 -17.5q0 -12 -14 -18q-63 -36 -110.5 -92.5t-84.5 -117.5q-9 -14 -19 -14q-8 0 -17.5 7.5t-9.5 16.5q0 4 1 7
t3 7zM64 1061q11 0 25.5 -5.5t27.5 -14.5t22 -20t9 -23q0 -15 -12.5 -26t-26.5 -11q-10 0 -24.5 5.5t-28 14.5t-22.5 20t-9 22q0 16 12 27t27 11zM371 1234q26 -1 33 -22t7 -42q0 -63 -42 -63q-40 0 -40 59q0 23 7 45.5t35 22.5zM97 1201q11 0 23.5 -8t23 -20t17.5 -26
t7 -25q0 -16 -13 -28q-12 -9 -24 -9q-11 0 -23.5 8.5t-23 21t-17.5 26.5t-7 24q0 14 11.5 25t25.5 11zM223 1275q12 0 22 -9t17 -22.5t11 -28t4 -25.5q0 -17 -11 -28t-28 -11q-12 0 -22 9.5t-17 23t-11 28t-4 25.5q0 17 11 27.5t28 10.5z" />
    <glyph glyph-name="P" unicode="P" horiz-adv-x="1040" 
d="M181 1540q0 52 51 52h284q66 0 123 -12.5t117 -42.5q115 -65 181 -172.5t66 -240.5q0 -96 -36.5 -181.5t-99.5 -149.5t-147.5 -101t-180.5 -37q-6 0 -11.5 0.5t-11.5 0.5h-232v-600q0 -51 -52 -51q-51 0 -51 51v695q0 52 51 52q45 0 51 -45h237q53 0 96.5 9t91.5 34
q91 47 142 134t51 189q0 77 -29 144t-79.5 116.5t-117.5 77.5t-143 28h-12q-1 -1 -6 -1h-230v-144q0 -52 -52 -52q-51 0 -51 52v195zM285 1090q15 0 44.5 -10t58 -25.5t50 -35.5t21.5 -40q0 -17 -11 -29t-29 -12q-8 0 -16 0.5t-16 0.5q-74 -3 -78 -43q-3 -27 -23 -43.5
t-46 -16.5q-16 0 -25 10t-13.5 24t-5.5 30t-1 28q0 22 3 50t13 53t27.5 42t46.5 17zM74 76v771q0 24 23 24q24 0 24 -24v-771q0 -24 -24 -24q-23 0 -23 24zM97 1564q24 0 24 -24v-286q0 -24 -24 -24q-23 0 -23 24v286q0 24 23 24zM348 1153q0 64 42 62q26 0 33 -21t7 -42
q0 -64 -42 -63q-27 0 -33.5 21.5t-6.5 42.5zM83 1043q17 0 43 -14q41 -25 41 -49q0 -15 -12.5 -26t-26.5 -11q-10 0 -24.5 5.5t-28 14.5t-22.5 20t-9 22q0 15 12 26.5t27 11.5zM116 1183q12 0 24.5 -8.5t23 -20.5t17.5 -26t7 -25q0 -15 -12 -25.5t-26 -10.5q-11 0 -23.5 8.5
t-23 21t-17.5 26.5t-7 24q0 14 11.5 25t25.5 11zM242 1257q12 0 22 -9.5t17 -22.5t11 -27.5t4 -25.5q0 -17 -11 -28t-28 -11q-12 0 -22 9.5t-17 23t-11 28t-4 25.5q0 17 11 27.5t28 10.5z" />
    <glyph glyph-name="Q" unicode="Q" horiz-adv-x="1311" 
d="M211 780q44 0 49 -47q8 -136 44.5 -248.5t104.5 -205.5q126 -172 292 -172q149 0 271 146l-169 190q-16 17 -16 35q0 19 18.5 36t36.5 17q20 0 38 -20l152 -171q112 196 112 460q0 293 -136 498q-130 195 -307 195q-47 0 -90 -15t-81 -40t-70 -58t-58 -70
q-18 -25 -39 -25q-19 0 -37.5 16t-18.5 35q0 16 12 32q33 48 74 89.5t89.5 72t103.5 48t115 17.5q117 0 217 -64.5t175 -176.5q153 -231 153 -554q0 -312 -143 -539l154 -173q16 -17 16 -35q0 -20 -20 -38q-19 -14 -35 -14q-18 0 -37 19l-140 156q-148 -171 -340 -171
q-216 0 -374 214q-153 207 -169 507q0 28 12 41t41 13zM266 1108q16 0 45 -9.5t57.5 -25.5t49.5 -36t21 -40q0 -17 -11 -29t-28 -12q-8 0 -16 0.5t-16 0.5q-74 -3 -78 -43q-3 -27 -23.5 -43t-46.5 -16q-16 0 -24.5 10t-13 24t-5.5 29.5t-1 27.5q0 22 3 50t13 53t27.5 42
t46.5 17zM49 866q1 21 25 21q13 0 17.5 -7.5t4.5 -18.5q0 -25 -2.5 -49t-2.5 -49q0 -90 17 -181.5t49.5 -179t80 -167.5t108.5 -147q8 -10 8 -16q0 -9 -9 -17.5t-18 -8.5q-8 0 -17 10q-128 149 -197 330t-69 378q0 26 1.5 51t3.5 51zM170 1366q18 31 41.5 64t51 64t58.5 57
t63 42q8 3 13 3q9 0 16.5 -8.5t7.5 -17.5q0 -12 -14 -18q-63 -36 -110.5 -92.5t-84.5 -117.5q-9 -14 -19 -14q-8 0 -17.5 7.5t-9.5 16.5q0 4 1 7t3 7zM64 1061q11 0 25.5 -5.5t27.5 -14.5t22 -20t9 -23q0 -15 -12.5 -26t-26.5 -11q-10 0 -24.5 5.5t-28 14.5t-22.5 20t-9 22
q0 16 12 27t27 11zM371 1234q26 -1 33 -22t7 -42q0 -63 -42 -63q-40 0 -40 59q0 23 7 45.5t35 22.5zM97 1201q11 0 23.5 -8t23 -20t17.5 -26t7 -25q0 -16 -13 -28q-12 -9 -24 -9q-11 0 -23.5 8.5t-23 21t-17.5 26.5t-7 24q0 14 11.5 25t25.5 11zM223 1275q12 0 22 -9
t17 -22.5t11 -28t4 -25.5q0 -17 -11 -28t-28 -11q-12 0 -22 9.5t-17 23t-11 28t-4 25.5q0 17 11 27.5t28 10.5z" />
    <glyph glyph-name="R" unicode="R" 
d="M181 751q0 52 51 52q45 0 51 -45h237q53 0 96.5 9t91.5 34q91 47 142 134t51 189q0 77 -29 144t-79.5 116.5t-117.5 77.5t-143 28h-12q-1 -1 -6 -1h-230v-144q0 -52 -52 -52q-51 0 -51 52v195q0 52 51 52h284q66 0 123 -12.5t117 -42.5q115 -65 181 -172.5t66 -240.5
q0 -87 -31.5 -167.5t-87 -144.5t-131 -104.5t-164.5 -48.5l393 -575q10 -17 10 -32q0 -22 -24 -39q-19 -11 -32 -11q-22 0 -39 24q-430 626 -428 627v1l-1 2h-184v-600q0 -51 -52 -51q-51 0 -51 51v695zM285 1090q15 0 44.5 -10t58 -25.5t50 -35.5t21.5 -40q0 -17 -11 -29
t-29 -12q-8 0 -16 0.5t-16 0.5q-74 -3 -78 -43q-3 -27 -23 -43.5t-46 -16.5q-16 0 -25 10t-13.5 24t-5.5 30t-1 28q0 22 3 50t13 53t27.5 42t46.5 17zM97 871q24 0 24 -24v-771q0 -24 -24 -24q-23 0 -23 24v771q0 24 23 24zM97 1564q24 0 24 -24v-286q0 -24 -24 -24
q-23 0 -23 24v286q0 24 23 24zM348 1153q0 64 42 62q26 0 33 -21t7 -42q0 -64 -42 -63q-27 0 -33.5 21.5t-6.5 42.5zM83 1043q17 0 43 -14q41 -25 41 -49q0 -15 -12.5 -26t-26.5 -11q-10 0 -24.5 5.5t-28 14.5t-22.5 20t-9 22q0 15 12 26.5t27 11.5zM116 1183
q12 0 24.5 -8.5t23 -20.5t17.5 -26t7 -25q0 -15 -12 -25.5t-26 -10.5q-11 0 -23.5 8.5t-23 21t-17.5 26.5t-7 24q0 14 11.5 25t25.5 11zM242 1257q12 0 22 -9.5t17 -22.5t11 -27.5t4 -25.5q0 -17 -11 -28t-28 -11q-12 0 -22 9.5t-17 23t-11 28t-4 25.5q0 17 11 27.5t28 10.5
z" />
    <glyph glyph-name="S" unicode="S" horiz-adv-x="1040" 
d="M168 312q15 6 26 6q27 0 42 -31q18 -40 47.5 -73.5t66.5 -57.5t79.5 -37t86.5 -13q65 0 121.5 23t99 63t68.5 95.5t30 119.5q0 64 -17 116t-58 103q-16 17 -16 35q0 20 18.5 35.5t37.5 15.5q21 0 37 -20q28 -35 47 -68t31 -67t17 -71.5t5 -82.5q-4 -86 -38.5 -159
t-91 -126t-131 -83t-159.5 -30q-60 0 -116.5 17t-105.5 48t-87.5 75.5t-64.5 98.5q-7 13 -7 26q0 25 32 42zM556 1595q61 0 117 -17t105 -48t88 -75.5t65 -98.5q7 -14 7 -28q0 -21 -20 -34t-39 -13q-25 0 -40 31q-19 40 -48.5 73.5t-66.5 57.5t-79.5 37.5t-87.5 13.5
q-66 0 -124 -25t-101 -68.5t-67.5 -101.5t-24.5 -124q0 -49 15.5 -96t44.5 -87q13 -18 13 -32q0 -19 -19.5 -35.5t-37.5 -16.5q-16 0 -32.5 18.5t-30.5 43.5t-24 50t-14 38q-17 60 -17 121q0 88 33 164t90 132t133 88t162 32zM543 853q15 0 44 -10.5t58 -26.5t50.5 -36
t21.5 -40q0 -17 -10.5 -29t-27.5 -12q-8 0 -16.5 1t-17.5 1q-74 -3 -78 -43q-3 -27 -23 -43.5t-47 -16.5q-16 0 -24.5 10t-13 24t-5.5 29.5t-1 27.5q0 21 3.5 49.5t13 54t27.5 43t46 17.5zM300 364q8 2 10 2q15 0 21 -16q20 -62 74 -95.5t117 -33.5q40 0 74.5 16.5
t60.5 43.5t41 62.5t15 74.5t-15 75.5t-43 64.5q-3 3 -6 5.5t-5 5.5q-8 5 -11 8t-2 2q-10 7 -10 17q0 9 6 18t16 9q7 0 16 -6q2 -2 6.5 -4.5t9.5 -7.5q42 -42 64 -84t22 -102q0 -53 -19.5 -98t-53.5 -77.5t-80 -51t-98 -18.5q-37 0 -72 12t-64.5 33t-52.5 50t-35 64
q-2 4 -2 11q0 13 16 20zM557 1426q63 0 116.5 -29t86.5 -83q4 -7 4 -14q0 -9 -8.5 -16.5t-17.5 -7.5q-10 0 -19 13q-28 42 -68.5 66t-91.5 24q-39 0 -73.5 -15.5t-60.5 -41.5t-41 -60.5t-15 -73.5q0 -47 23 -87q4 -10 4 -14q0 -9 -10 -15.5t-18 -6.5q-10 0 -18 14
q-29 53 -29 107q0 50 18.5 93.5t50.5 76t75 51.5t92 19zM375 945q11 0 23.5 -8.5t23 -20.5t17.5 -26t7 -25q0 -14 -11.5 -25.5t-25.5 -11.5q-11 0 -23.5 8.5t-23.5 20.5t-18 26t-7 25q0 14 12 25.5t26 11.5zM341 804q11 0 25.5 -5.5t27.5 -14.5t22 -20.5t9 -22.5
q0 -15 -12.5 -26t-26.5 -11q-11 0 -25.5 5.5t-27 14t-21.5 20t-9 23.5q0 16 11 26.5t27 10.5zM648 977q26 -1 33 -22t7 -42q0 -63 -42 -63q-40 0 -40 59q0 23 7 45.5t35 22.5zM500 1019q12 0 22 -9.5t17 -23t11 -28t4 -25.5q0 -17 -11 -28t-28 -11q-12 0 -22 9.5t-17 22.5
t-11 28t-4 25q0 17 11 28.5t28 11.5z" />
    <glyph glyph-name="023" horiz-adv-x="899" 
d="M49 1541q0 51 51 51h742q51 0 51 -51t-51 -51h-301v-328q0 -51 -51 -51t-51 51v328h-339q-51 0 -51 51zM439 55v511q0 51 51 51t51 -51v-511q0 -51 -51 -51t-51 51zM485 910q15 0 44 -9.5t57.5 -25t50 -35t21.5 -39.5q0 -19 -9.5 -31.5t-29.5 -12.5q-8 0 -16 1t-16 1
q-76 -3 -79 -43q-2 -27 -22.5 -43.5t-46.5 -16.5q-15 0 -24 9t-13.5 22.5t-6 28t-1.5 26.5q0 22 3.5 51t13 55t27.5 44t47 18zM336 639q0 24 24 24t24 -24v-593q0 -24 -24 -24t-24 24v593zM336 1126v303q0 24 24 24t24 -24v-303q0 -24 -24 -24t-24 24zM548 972q0 65 42 63
q27 0 33.5 -21.5t6.5 -42.5q0 -63 -42 -63q-27 1 -33.5 21.5t-6.5 42.5zM281 863q11 0 25.5 -5.5t27.5 -14t22 -20t9 -23.5q0 -14 -10 -26t-25 -12q-10 0 -25 5.5t-28.5 14.5t-23 20t-9.5 22q0 15 10.5 27t26.5 12zM316 1003q11 0 23.5 -8.5t23.5 -20.5t18 -26t7 -25
q0 -14 -11 -25t-25 -11q-11 0 -24 8.5t-24 20.5t-18.5 26t-7.5 24q0 14 12 25.5t26 11.5zM441 1077q13 0 23 -9t17 -22t10.5 -28t3.5 -26q0 -17 -10 -28t-27 -11q-13 0 -23 9t-17 22.5t-11 28.5t-4 26q0 17 10.5 27.5t27.5 10.5z" />
    <glyph glyph-name="U" unicode="U" horiz-adv-x="1181" 
d="M242 443v273q0 51 51 51t51 -51v-315q2 -61 27.5 -114.5t68 -93.5t97.5 -63t116 -23q63 0 119.5 24t98.5 66t67 97.5t25 118.5v11.5t-1 11.5v1109q0 52 51 52t51 -52v-1102q1 -7 1 -13.5v-13.5q0 -85 -32 -159.5t-88 -130.5t-131 -88.5t-161 -32.5q-85 0 -160 32.5
t-131 88t-88.5 130.5t-32.5 159v14t1 14zM309 1059q15 0 44 -9.5t57.5 -25t50 -35t21.5 -39.5q0 -19 -9.5 -31.5t-29.5 -12.5q-8 0 -16 1t-16 1q-76 -3 -79 -43q-2 -27 -22.5 -43.5t-46.5 -16.5q-16 0 -24.5 10t-13 24t-5.5 29.5t-1 27.5q0 22 3 50t13 53t27.5 42.5
t46.5 17.5zM135 380v430q0 24 24 24t24 -24v-428l-1 -2q0 -39 5 -80t17.5 -79t34.5 -71t57 -57q12 -9 12 -20q0 -6 -5 -14q-8 -11 -19 -11q-3 0 -7.5 0.5t-6.5 4.5zM293 1597q51 0 51 -52v-219q0 -52 -51 -52t-51 52v219q0 52 51 52zM159 1584q24 0 24 -24v-319
q0 -24 -24 -24t-24 24v319q0 24 24 24zM105 1012q11 0 25.5 -5.5t27.5 -14t22 -20t9 -23.5q0 -14 -10.5 -26.5t-25.5 -12.5q-10 0 -24.5 6t-28 15t-23 20t-9.5 22q0 15 10.5 27t26.5 12zM266 1226q12 0 22 -9.5t17 -23t11 -28t4 -25.5q0 -17 -11 -28t-28 -11q-12 0 -22 9.5
t-17 23t-11 28t-4 25.5q0 17 11 28t28 11zM414 1184q27 0 33.5 -21.5t6.5 -42.5q0 -63 -42 -63q-40 1 -40 60q0 22 7 44.5t35 22.5zM140 1152q11 0 23.5 -8.5t23.5 -20.5t18 -26t7 -25q0 -14 -11 -25t-25 -11q-11 0 -23.5 8.5t-23.5 20.5t-18.5 25.5t-7.5 24.5
q0 14 11.5 25.5t25.5 11.5z" />
    <glyph glyph-name="V" unicode="V" horiz-adv-x="1181" 
d="M394 816q11 4 22 4q30 0 42 -37l183 -561l435 1334q12 36 42 36q21 0 40 -12.5t19 -35.5q0 -9 -3 -20l-481 -1473q-3 -21 -17 -34t-35 -13t-35.5 12.5t-16.5 34.5l-228 701q-4 11 -4 23q0 31 37 41zM325 1075q15 0 44 -10.5t58 -26.5t50.5 -36t21.5 -39q0 -17 -11 -29.5
t-28 -12.5q-8 0 -16 1t-17 1q-75 -3 -78 -43q-3 -41 -44 -55q-11 -5 -25 -5q-15 0 -24 9t-13.5 22t-6 27.5t-1.5 26.5q0 21 3 50t13 56t27.5 45.5t46.5 18.5zM272 760q14 0 20 -17l224 -676q2 -8 2 -11q0 -10 -9 -15.5t-18 -5.5q-14 0 -20 17l-224 676q-2 8 -2 10
q0 11 8.5 16.5t18.5 5.5zM142 1588q11 4 22 4q30 0 42 -36l66 -204q4 -11 4 -23q0 -23 -19.5 -34t-39.5 -11q-30 0 -42 36l-66 204q-4 11 -4 23q0 31 37 41zM36 1501q15 0 22 -16l83 -237q2 -8 2 -11q0 -11 -9.5 -16t-18.5 -5q-14 0 -19 17l-83 237q-3 6 -3 12q0 10 9 14.5
t17 4.5zM282 1241q13 0 23 -9t17 -22t10.5 -27.5t3.5 -25.5q0 -18 -10.5 -29.5t-28.5 -11.5q-12 0 -22 9.5t-17 22.5t-11 28t-4 25q0 17 11 28.5t28 11.5zM134 1158q11 9 23 9q11 0 23.5 -8.5t23 -20.5t17.5 -26t7 -25q0 -14 -11.5 -25.5t-25.5 -11.5q-11 0 -23.5 8.5
t-23 20.5t-17.5 25.5t-7 24.5q0 15 14 29zM388 1136q2 63 42 63q41 -2 41 -64q-1 -63 -42 -63t-41 64zM123 1026q11 0 25.5 -5.5t27 -14t21.5 -19.5t9 -23q0 -15 -10 -27t-26 -12q-11 0 -25.5 5.5t-27.5 14.5t-22 20.5t-9 23.5q0 15 11 26t26 11z" />
    <glyph glyph-name="W" unicode="W" horiz-adv-x="1397" 
d="M322 748q39 0 46 -42l81 -458l251 673q11 40 50 40q19 0 32.5 -11t18.5 -29l250 -673l231 1305q8 43 45 43q22 0 39.5 -12t17.5 -36q0 -8 -1 -13l-263 -1489q-8 -43 -46 -43q-20 0 -34.5 9t-19.5 29l-270 722l-269 -722q-13 -38 -54 -38q-40 0 -46 43l-114 642
q-1 5 -1 14q0 24 17.5 35t38.5 11zM281 1044q15 0 44.5 -10t58 -25.5t50 -35.5t21.5 -40q0 -17 -11 -29.5t-28 -12.5q-8 0 -16 1t-17 1q-75 -3 -78 -43q-2 -27 -22.5 -43.5t-46.5 -16.5q-15 0 -24 9t-13.5 22.5t-6 28t-1.5 26.5q0 21 3 50t13 55.5t27.5 44.5t46.5 18z
M172 1595q37 0 46 -42l41 -233q1 -5 1 -15q0 -26 -18.5 -36t-40.5 -10q-37 0 -43 43l-41 233q-1 5 -1 14q0 24 17.5 35t38.5 11zM161 741q12 0 18 -3.5t10 -15.5l124 -652q0 -29 -26 -29q-18 0 -21 20l-124 652q-1 3 -1 8q0 16 20 20zM28 1550q17 0 22 -20l62 -300
q1 -3 1 -8q0 -17 -19 -20q-3 -1 -9 -1q-16 0 -19 19l-63 301q-1 3 -1 7q0 11 8 16.5t18 5.5zM238 1211q13 0 23 -9t17 -22t10.5 -27.5t3.5 -25.5q0 -18 -10.5 -29.5t-28.5 -11.5q-12 0 -22 9.5t-17 22.5t-11 28t-4 25q0 17 11 28.5t28 11.5zM78 997q11 0 25 -5.5t27.5 -14.5
t22.5 -20t9 -23q0 -15 -10 -27t-26 -12q-10 0 -24.5 6t-28 15t-23 20t-9.5 22q0 15 10.5 27t26.5 12zM113 1137q11 0 23.5 -8.5t23 -20.5t17.5 -25.5t7 -24.5q0 -14 -11 -25.5t-25 -11.5q-11 0 -24 8t-23.5 20t-17.5 26t-7 25q0 14 11.5 25.5t25.5 11.5zM344 1106
q2 63 42 63q41 0 41 -64q-1 -63 -42 -63q-41 2 -41 64z" />
    <glyph glyph-name="X" unicode="X" horiz-adv-x="1181" 
d="M144 78l407 722l-73 130q-9 17 -9 30q0 20 20 34t38 14q23 0 39 -28l43 -76l377 668q16 28 40 28q12 0 30 -8q28 -16 28 -41q0 -14 -9 -29l-407 -722l407 -722q9 -16 9 -30q0 -24 -28 -40q-18 -8 -29 -8q-25 0 -41 28l-377 668l-377 -668q-16 -28 -41 -28
q-19 0 -37.5 13.5t-18.5 33.5q0 15 9 31zM414 1217q14 0 43 -9.5t58 -25t51 -34.5t22 -38q0 -18 -10 -31.5t-30 -13.5q-8 0 -16 0.5t-16 0.5q-74 -3 -78 -43q-3 -26 -23 -43t-46 -17q-16 0 -25 10t-13.5 24t-5.5 30t-1 28q0 22 3 50t13 53t27.5 42t46.5 17zM59 172l360 637
l-45 79q-4 7 -4 13q0 10 13 20q10 4 13 4q10 0 20 -13l51 -92q3 -6 3 -13t-4 -12l-365 -647q-10 -13 -19 -13t-18 6.5t-9 16.5q0 4 4 14zM163 1592q18 8 30 8q24 0 39 -28l69 -121q8 -15 8 -29q0 -20 -19 -34.5t-38 -14.5q-24 0 -40 28l-68 121q-9 17 -9 30q0 24 28 40z
M75 1508q10 0 19 -12l91 -147q5 -8 5 -15q0 -9 -9 -16t-18 -7q-11 0 -18 13l-92 147q-5 8 -5 14q0 10 9 16.5t18 6.5zM244 1309q12 0 25 -8t23.5 -20t17.5 -25.5t7 -25.5q0 -14 -12 -25t-26 -11q-10 0 -23 8.5t-23.5 21t-18 26t-7.5 23.5q0 14 11.5 25t25.5 11zM477 1279
q0 65 42 63q27 0 33.5 -21.5t6.5 -42.5q0 -63 -42 -63q-27 1 -33.5 21.5t-6.5 42.5zM211 1170q18 0 44 -14q40 -25 40 -49q0 -9 -6 -18q-11 -20 -31 -20q-10 0 -25 5.5t-28 14.5t-22.5 20.5t-9.5 22.5q0 15 11.5 26.5t26.5 11.5zM371 1384q13 0 23 -9t16.5 -22.5t10 -28
t3.5 -25.5q0 -17 -10 -28t-27 -11q-13 0 -23 9t-17 22.5t-11 28.5t-4 26q0 17 11 27.5t28 10.5z" />
    <glyph glyph-name="Y" unicode="Y" horiz-adv-x="1083" 
d="M127 1603q22 0 38 -24l397 -558l396 558q17 24 39 24q19 0 37.5 -15.5t18.5 -35.5q0 -15 -12 -32l-428 -604l-2 -6v-72q0 -51 -51 -51t-51 51v81l-427 601q-13 20 -13 33q0 19 20 34.5t38 15.5zM537 596q13 0 30.5 -5.5t35.5 -13t34.5 -16t26.5 -15.5q16 -11 31.5 -24
t15.5 -35q0 -19 -9.5 -31.5t-29.5 -12.5q-8 0 -16 1t-16 1q-76 -3 -79 -43q-2 -27 -22.5 -43.5t-46.5 -16.5q-16 0 -24.5 10t-13 24t-5.5 29.5t-1 27.5q0 21 3 49.5t13 53.5t27.5 42.5t45.5 17.5zM48 1463q11 0 18 -12l369 -519q6 -7 6 -16v-95q0 -24 -24 -24t-24 24v88
l-366 514q-6 8 -6 15q0 9 9.5 17t17.5 8zM560 316q51 0 51 -51v-213q0 -51 -51 -51t-51 51v213q0 51 51 51zM394 301q0 24 24 24t24 -24v-259q0 -24 -24 -24t-24 24v259zM334 549q11 0 25.5 -5.5t27.5 -14.5t22.5 -20.5t9.5 -22.5q0 -10 -6 -19q-11 -20 -31 -20
q-11 0 -25.5 5.5t-27.5 14.5t-22 20.5t-9 23.5q0 15 10 26.5t26 11.5zM369 689q11 0 23.5 -8.5t23.5 -20.5t18 -26t7 -25q0 -14 -11.5 -25.5t-25.5 -11.5q-23 0 -49 33q-23 26 -23 47q0 14 11.5 25.5t25.5 11.5zM643 721q40 0 40 -64q-1 -63 -42 -63q-41 2 -41 64
q2 63 43 63zM495 763q12 0 22 -9t17 -22t10.5 -27.5t3.5 -25.5q0 -17 -10.5 -29t-27.5 -12q-12 0 -22 9.5t-17 22.5t-11 28t-4 25q0 18 11 29t28 11z" />
    <glyph glyph-name="Z" unicode="Z" horiz-adv-x="1170" 
d="M147 54q0 15 7 28l337 614q16 28 41 28q11 0 29 -8q29 -17 29 -41q0 -14 -9 -29l-297 -541h730q51 0 51 -51t-51 -51h-816q-51 0 -51 51zM198 1593h816q51 0 51 -51q0 -18 -7 -28l-188 -341q-16 -29 -40 -29q-19 0 -38.5 14.5t-19.5 34.5q0 14 8 29l148 269h-730
q-51 0 -51 51t51 51zM669 986q16 0 45 -10t57.5 -26t50 -36t21.5 -40q0 -17 -11 -29t-29 -12q-8 0 -16 1t-16 1q-74 -3 -78 -43q-3 -27 -23 -43.5t-46 -16.5q-16 0 -25 10t-13.5 24t-5.5 30t-1 28q0 22 3 50t13 53t27.5 42t46.5 17zM69 176l331 601q7 13 18 13
q9 0 18.5 -6.5t9.5 -16.5q0 -6 -4 -13l-332 -601q-6 -14 -18 -14q-9 0 -18.5 6.5t-9.5 16.5q0 6 5 14zM647 1257l105 181q8 13 19 13q4 0 7 -1t7 -3q12 -9 12 -19q0 -7 -4 -14l-105 -180q-8 -14 -19 -14q-6 0 -14 5q-13 6 -13 17q0 8 5 15zM501 1079q11 0 23.5 -8.5
t23 -20.5t17.5 -25.5t7 -24.5q0 -15 -11.5 -26t-26.5 -11q-11 0 -23.5 8.5t-23 21t-17.5 26.5t-7 24q0 14 12 25t26 11zM466 939q18 0 44 -14q41 -25 41 -50q0 -14 -12 -25.5t-26 -11.5q-10 0 -25 5.5t-28 14.5t-22.5 20.5t-9.5 22.5q0 15 11.5 26.5t26.5 11.5zM732 1049
q0 64 42 62q27 0 33.5 -21.5t6.5 -42.5q0 -63 -42 -62q-40 0 -40 64zM612 1151q8 2 12 2q12 0 22.5 -9.5t18 -23t12 -28t4.5 -25.5q0 -17 -11.5 -27.5t-28.5 -10.5q-12 0 -22 9.5t-17 22.5t-11 28t-4 25q0 28 25 37z" />
    <glyph glyph-name="a" unicode="a" horiz-adv-x="1072" 
d="M288 151q19 0 37 -19q26 -27 63 -27q41 0 107 43q39 36 71.5 80.5t58 94t45.5 101t35 101.5q11 38 42 38q12 0 24.5 -5t20.5 -14q36 -42 65.5 -99.5t53 -119.5t41.5 -124.5t30 -115.5q2 -12 2 -17q0 -24 -19 -35.5t-40 -11.5q-32 0 -43 41q-17 78 -37 144.5t-42 122.5
q-8 18 -16.5 35.5t-16.5 34.5q-38 -95 -85.5 -177t-123.5 -152q1 1 -0.5 0t-5.5 -5q-85 -57 -162 -62q-44 0 -77.5 13.5t-64.5 45.5q-17 17 -17 35q0 19 17.5 36.5t36.5 17.5zM494 912q70 0 130 -19t111.5 -53.5t95 -82t80.5 -103.5q10 -16 10 -32q0 -20 -19.5 -35
t-37.5 -15q-24 0 -39 27q-30 45 -64.5 84t-75.5 67t-89 44t-104 16q-71 0 -118.5 -22t-77 -62t-42.5 -95t-15 -120q-2 -50 -52 -50q-50 1 -50 50q0 89 21.5 162.5t65.5 126.5t111 82.5t159 29.5zM223 318q12 0 33 -7t41 -18.5t35 -26t15 -29.5v-5q-4 -15 -10.5 -19t-15.5 -4
q-5 0 -11 0.5t-13 0.5q-53 -3 -56 -31q-2 -20 -16 -31.5t-34 -11.5q-12 0 -18.5 7t-9.5 17.5t-3.5 22t-0.5 20.5q0 15 2.5 35t9.5 37.5t19.5 30t32.5 12.5zM78 285q12 0 32 -11q29 -18 29 -36q0 -11 -9 -18.5t-19 -7.5q-8 0 -18.5 4t-19.5 10.5t-15.5 14.5t-6.5 17
q0 11 8 19t19 8zM299 408q29 0 29 -46q0 -45 -30 -45q-29 0 -29 41q0 16 4.5 33t25.5 17zM193 438q9 0 16 -7t12 -16.5t8 -20t3 -18.5q0 -19 -18 -25q-6 -3 -12 -3q-20 0 -31 35q-6 15 -6 27t8 20t20 8zM102 385q8 0 17.5 -6t17 -15t12.5 -19t5 -18q0 -11 -8 -18t-19 -7
q-8 0 -17 6t-16.5 14.5t-12.5 18t-5 17.5q0 10 8 18.5t18 8.5z" />
    <glyph glyph-name="b" unicode="b" horiz-adv-x="996" 
d="M138 76v241q0 51 51 51q52 0 52 -51v-209h210q72 0 135 27.5t110.5 75t75 110.5t27.5 134t-26.5 134.5t-73 111.5t-109.5 76t-135 28h-214v-3q0 -51 -52 -51q-51 0 -51 51v744q0 51 51 51q52 0 52 -51v-638h210q3 0 4 -1q93 -1 174 -36.5t141.5 -96.5t95.5 -143t35 -176
q-1 -92 -36 -174t-96 -143t-142.5 -96.5t-175.5 -35.5h-262q-51 0 -51 51q0 7 1 10q-1 2 -1 9zM212 586q12 0 33 -7t41.5 -18t35.5 -25.5t15 -29.5v-5q-4 -15 -11 -19.5t-16 -4.5q-5 0 -11 0.5t-13 0.5q-54 -2 -56 -31q-1 -20 -16 -31t-34 -11q-12 0 -18 7t-9 17t-3.5 21
t-0.5 20q0 15 2 35t9 38t19 30.5t33 12.5zM92 654q8 0 17 -6t16.5 -15t12.5 -19t5 -18q0 -12 -10 -19q-10 -8 -18 -8q-16 0 -33 24q-17 20 -17 34q0 9 9 18t18 9zM258 631q0 47 30 45q20 0 24.5 -15t4.5 -30q0 -46 -30 -45q-29 0 -29 45zM172 705q6 2 10 2q9 0 16 -7
t12 -16.5t8 -20t3 -18.5q0 -13 -8 -20.5t-21 -7.5q-8 0 -15 7t-12 16.5t-8 20t-3 17.5q0 20 18 27zM67 553q12 0 32 -10q29 -17 29 -36q0 -11 -8 -18.5t-18 -7.5q-8 0 -18.5 3.5t-20 9.5t-16 14t-6.5 17q0 11 7.5 19.5t18.5 8.5z" />
    <glyph glyph-name="c" unicode="c" horiz-adv-x="910" 
d="M163 610q25 69 68.5 125.5t100 96t124 61t140.5 21.5q84 0 161 -32q34 -14 34 -42q0 -20 -13 -39.5t-34 -19.5q-10 0 -24 6q-63 24 -127 24q-71 0 -134.5 -26.5t-111.5 -72t-77 -108t-31 -134.5q-1 -26 -14 -37.5t-39 -11.5q-49 0 -49 49q0 35 7 71t19 69zM398 152
q11 0 29 -8q38 -20 80.5 -30.5t85.5 -10.5q66 0 127 24q15 5 23 5q29 0 43 -34q4 -12 4 -24q0 -29 -33 -42q-78 -31 -164 -31q-53 0 -110.5 14.5t-103.5 38.5q-30 15 -30 40q0 18 14.5 38t34.5 20zM302 294q12 0 32.5 -7t41 -18.5t35.5 -26t15 -29.5v-5q-4 -15 -11 -19
t-16 -4q-5 0 -11 0.5t-13 0.5q-53 -1 -56 -31q-2 -18 -17 -30.5t-33 -12.5q-12 0 -18 7t-9 16.5t-3.5 20.5t-0.5 20q0 15 2.5 35.5t9.5 38.5t19.5 31t32.5 13zM156 261q8 0 18.5 -4t20 -10.5t16 -14.5t6.5 -17q0 -11 -8.5 -19t-18.5 -8q-14 0 -31 11q-29 15 -29 34
q0 11 7.5 19.5t18.5 8.5zM377 384q20 0 24.5 -15.5t4.5 -30.5q0 -45 -30 -45q-29 0 -29 46q2 45 30 45zM272 414q9 0 16 -6.5t11.5 -16.5t7 -20t2.5 -18q0 -12 -7.5 -20t-19.5 -8q-9 0 -16 6.5t-12.5 16t-8 20t-2.5 18.5q0 13 8 20.5t21 7.5zM181 361q8 0 17 -6t16.5 -14.5
t12.5 -18.5t5 -18q0 -11 -7.5 -18.5t-18.5 -7.5q-7 0 -16.5 6t-17 15t-13 19t-5.5 17q0 10 8.5 18t18.5 8z" />
    <glyph glyph-name="d" unicode="d" horiz-adv-x="1029" 
d="M156 579q0 2 1 2v1q3 13 11.5 37t20.5 48t27 42t32 18q19 0 38.5 -15.5t19.5 -35.5q0 -14 -11 -30v-2h-1q-14 -20 -23.5 -44t-15.5 -47v-1h-1q-12 -46 -12 -94q0 -93 45 -174q0 -3 2 -3l3 -5v-1l2 -2q0 -1 1 -2v-1q54 -88 144 -131q2 -2 5 -2h1v-1q2 0 2 -1h2l1 -1h1
l5 -3h1l2 -1h1l1 -1h2l3 -2h1l1 -1h2l1 -1h2l2 -2h2l1 -1h2l1 -1h3l2 -1h1l1 -1h2l4 -2h1l2 -1h3l1 -1h2l1 -1h3l2 -1h1q1 -1 2 -1h3l1 -1h3q1 -1 2 -1h3v-1h3l3 -1h3l3 -1h3q30 -6 57 -6q8 0 15.5 0.5t15.5 1.5q2 0 4 0.5t5 0.5h168v711l-1 -1q-33 0 -74 -0.5t-92 -0.5
q-29 0 -40.5 12.5t-11.5 40.5q0 48 50 49l168 2h1v633q0 51 52 51q51 0 51 -51v-651q13 -9 13 -22q0 -15 -13 -32v-793q0 -51 -51 -51h-220q-10 -1 -24.5 -1h-34.5h-8l-1 1h-12q-1 1 -2 1h-8l-1 1h-7l-1 1h-4q-1 0 -2 1h-1h-5l-2 1h-4l-1 1h-4l-3 1h-1l-3 1h-3l-2 1h-4l-2 1
h-2l-2 1h-1q-1 0 -2 1h-1h-1l-2 1h-2l-2 1h-2l-2 1h-2l-2 1h-2l-1 1h-2l-2 1h-2l-4 2h-1l-2 1q-2 0 -2 1h-2l-2 1h-2l-3 2h-2l-2 1h-2q0 1 -2 1l-2 1h-1l-2 1l-2 1l-2 1h-2l-3 2q-1 0 -2 1h-2l-5 3q-1 0 -2 1h-1h-1q0 1 -2 1l-1 1l-2 1h-2v1q-1 0 -2 1h-1q-4 0 -4 2
q-1 0 -3 2q-117 57 -186 169q0 1 -2 3v1l-2 2v2l-7 11q-57 104 -57 222q0 64 16 121zM381 875q23 0 39 -18q14 -17 19.5 -46t5.5 -55q0 -9 -0.5 -19.5t-3.5 -20.5t-9.5 -16.5t-18.5 -6.5q-18 0 -33 11t-16 31q-2 29 -56 32q-7 0 -13 -0.5t-11 -0.5q-13 0 -20.5 8t-7.5 21
t14.5 27t34.5 26t41.5 19.5t34.5 7.5zM306 965q30 0 30 -45q0 -46 -29 -46q-30 -1 -30 45q0 16 4.5 30.5t24.5 15.5zM526 841q11 0 19 -8t8 -19q0 -8 -6.5 -16.5t-16 -15t-20 -10.5t-18.5 -4q-11 0 -18.5 8.5t-7.5 19.5q0 9 6.5 17t15.5 14t19.5 10t18.5 4zM502 941
q10 0 18 -7.5t8 -17.5q0 -7 -5 -17.5t-12.5 -19.5t-16 -15.5t-16.5 -6.5q-9 0 -17 8q-11 8 -11 19q0 8 5 18t12.5 18.5t17 14.5t17.5 6zM379 960q11 35 33 35q4 0 10 -2q18 -7 18 -27q0 -7 -3 -17.5t-8 -20.5t-12.5 -16.5t-15.5 -6.5q-28 0 -28 28q0 11 6 27z" />
    <glyph glyph-name="e" unicode="e" horiz-adv-x="1094" 
d="M591 909q59 0 115 -15t106 -43.5t91.5 -69t72.5 -90.5q13 -10 19 -24q3 -9 3 -18q0 -22 -15 -37.5t-36 -18.5l-678 -271q8 -21 19 -38.5t22 -33.5q13 -18 13 -32q0 -19 -19 -35.5t-38 -16.5q-18 0 -36 21.5t-33 50t-26 56.5t-15 42q-9 29 -13 59t-4 61q0 95 35.5 177.5
t97 144t143.5 96.5t176 35zM243 421l623 250q-51 63 -122.5 99.5t-152.5 36.5q-73 0 -137 -27.5t-111 -75.5t-74.5 -112t-27.5 -137q0 -9 0.5 -17.5t1.5 -16.5zM695 126q102 31 170 119q16 22 38 22q20 0 38 -16t18 -36q0 -15 -13.5 -33.5t-31.5 -36.5t-37 -33t-30 -23
q-54 -41 -121 -60q-11 -4 -23 -4q-31 0 -41 37q-4 11 -4 23q0 31 37 41zM475 138q21 0 33 -5.5t23 -26.5q11 -20 22 -45t11 -49q0 -22 -12 -31q-11 -7 -18 -7q-10 0 -17 8t-18 16q-24 20 -44 20q-11 0 -18 -7q-13 -13 -31 -13q-14 0 -29 8t-15 24q0 15 13 33t31 34t37 27
t32 14zM421 217q1 46 31 45q19 0 23.5 -16.5t4.5 -30.5q0 -44 -31 -44q-28 1 -28 42v4zM552 244q28 0 28 -28q0 -7 -3 -17.5t-8 -20.5t-12 -16.5t-16 -6.5q-28 0 -28 27q0 8 2.5 18.5t8 20.5t12.5 16.5t16 6.5zM366 204q21 0 35 -36q5 -17 5 -25q0 -14 -8.5 -21.5
t-21.5 -7.5q-20 0 -31 35q-6 15 -6 26t8 20t19 9zM614 152q10 0 18 -8.5t8 -18.5q0 -8 -5 -17.5t-12.5 -18t-17 -14t-17.5 -5.5q-10 0 -18.5 7t-8.5 18q0 8 5.5 17.5t13.5 18.5t17 15t17 6z" />
    <glyph glyph-name="f" unicode="f" horiz-adv-x="856" 
d="M68 828q0 51 51 51h23v449q-1 5 -1 10v10q0 39 13.5 71.5t37 59.5t53.5 48t63 36q78 33 169 33q41 0 83 -7.5t81 -23.5t73 -40.5t59 -58.5q40 -55 40 -118q0 -35 -10 -52t-48 -17q-23 0 -34.5 12.5t-11.5 33.5q0 3 0.5 5.5t0.5 5.5q0 22 -3 36.5t-17 33.5
q-37 48 -96.5 68t-116.5 20q-28 0 -58.5 -4.5t-59 -15t-53 -27.5t-42.5 -41q-14 -19 -17 -32.5t-3 -35.5v-459h474q51 0 51 -51t-51 -51h-474v-67q0 -52 -51 -52t-51 52v67h-23q-51 0 -51 51zM142 53v207q0 51 51 51t51 -51v-207q0 -51 -51 -51t-51 51zM204 500
q14 0 27 -8.5t24 -21t20.5 -26.5t15.5 -24q12 -25 12 -42q0 -11 -8 -20.5t-20 -9.5q-8 0 -16 5.5t-17 10.5q-24 12 -40 12t-25 -13q-13 -21 -37 -21q-16 0 -28.5 6t-12.5 25q0 14 10 36t26 42t34.5 34.5t34.5 14.5zM323 542q11 0 19 -8t8 -19q0 -7 -4 -17.5t-10 -20.5
t-14 -16.5t-16 -6.5q-6 0 -13 4q-15 8 -15 22q0 8 4 18.5t10.5 20t14.5 16.5t16 7zM143 612q9 0 15 -6t10 -15t5.5 -19t1.5 -18q0 -14 -7 -23.5t-22 -9.5q-9 0 -15.5 6.5t-10.5 15.5t-5.5 19t-1.5 17q0 33 30 33zM72 536q8 0 16 -6.5t15 -16t11 -20t4 -17.5q0 -11 -8 -19
t-19 -8q-8 0 -16.5 6.5t-15 16t-11 20t-4.5 17.5q0 11 8.5 19t19.5 8zM247 617q12 0 18 -9.5t6 -25.5q0 -18 -7 -36.5t-29 -18.5q-25 0 -25 35q0 19 7 37t30 18z" />
    <glyph glyph-name="g" unicode="g" 
d="M876 906h0.5h0.5q51 0 51 -52v-791q1 -7 2 -13t-2 -11v-244v-2.5v-3.5q-5 -120 -74 -219q-72 -100 -189 -142q-13 -5 -24 -5q-29 0 -41 35q-5 13 -5 24q0 29 36 42q86 31 140 106q52 73 55 162v2v1v210q-18 -1 -49 -1q-60 0 -168 3q-13 -1 -26 -1q-110 0 -207 53
q-112 59 -175 166q-64 108 -64 231q0 122 64 232q63 105 175 165q100 53 214 53h16h0.5h0.5h269zM262 -320q6 -14 6 -25q0 -28 -32 -43q-15 -7 -27 -7q-27 0 -41 32q-15 34 -25 77q-9 37 -10 81q0 51 50 51h4q48 0 48 -50q1 -33 7 -60q7 -33 20 -56zM294 -489q24 17 51 27
t39 10q23 0 39 -19q17 -21 21 -52t4 -50q0 -12 -1 -22q-4 -40 -32 -40q-7 0 -16 3q-30 12 -32 40.5t-56 30.5h-31.5t-18.5 22q-1 3 -1 7q0 21 34 43zM309 -363q30 0 30 -45v-3q0 -43 -29 -43q-30 0 -30 45t29 46zM425 -335q18 -6 18 -26q0 -11 -6 -27q-13 -34 -32 -34
q-5 0 -11 2q-18 6 -18 25q0 11 6 27q12 35 33 35q5 0 10 -2zM522 -393q10 -8 10 -19q0 -15 -16 -35q-19 -23 -36 -23q-8 0 -16 7q-11 8 -11 20q0 14 17 34q18 22 35 22q9 0 17 -6zM553 -501q4 -6 4 -13q0 -17 -29 -35q-18 -10 -31 -10q-16 0 -24 14q-3 6 -3 13q0 18 28 35
q18 11 32 11q15 0 23 -15zM826 106v697h-219q-4 0 -6 1h-12q-90 0 -165 -41q-86 -45 -135 -128q-50 -84 -50 -179q0 -96 50 -179t135 -128q75 -41 159 -41q11 0 22 1h2.5h3.5q150 -3 215 -3z" />
    <glyph glyph-name="h" unicode="h" horiz-adv-x="1072" 
d="M139 893q0 51 52 51q51 0 51 -51v-221q19 44 45.5 87.5t61.5 78t79 56t97 21.5q96 0 180 -77q49 -45 94 -116.5t82.5 -169t65 -222t42.5 -274.5q0 -29 -12 -42t-41 -13q-46 0 -49 46q-27 280 -95.5 459t-154.5 256q-25 23 -53.5 37t-62.5 14q-55 0 -109 -57
q-74 -79 -122 -254.5t-48 -449.5q0 -51 -51 -51q-52 0 -52 51v841zM139 1540q0 52 52 52q51 0 51 -52v-173q0 -51 -51 -51q-52 0 -52 51v173zM224 1175q20 0 47.5 -12.5t44.5 -22.5q34 -24 34 -44q0 -11 -8.5 -20.5t-19.5 -9.5q-5 0 -10.5 0.5t-12.5 0.5q-53 -1 -56 -31
q-2 -20 -16.5 -31t-33.5 -11q-12 0 -18.5 6.5t-9.5 16.5t-3.5 20.5t-0.5 19.5q0 15 2.5 35.5t9 38.5t19 31t32.5 13zM194 1296q9 0 16.5 -6.5t12.5 -16t7.5 -20t2.5 -18.5q0 -13 -7.5 -21t-20.5 -8q-22 0 -32 34q-6 17 -6 27q0 12 7.5 20.5t19.5 8.5zM104 1242q8 0 17 -6
t17 -14.5t13 -18t5 -17.5q0 -11 -8 -19t-19 -8q-8 0 -17 6t-16.5 14.5t-12.5 18.5t-5 18q0 11 7.5 18.5t18.5 7.5zM80 1142q12 0 32 -10q28 -19 28 -36q0 -11 -8 -19t-19 -8q-7 0 -17.5 4t-20 10.5t-16 14.5t-6.5 16q0 11 8 19.5t19 8.5zM271 1220q0 47 30 45q29 0 29 -46
q0 -45 -30 -44q-29 0 -29 45z" />
    <glyph glyph-name="i" unicode="i" horiz-adv-x="465" 
d="M189 245q0 51 51 51t51 -51v-193q0 -51 -51 -51t-51 51v193zM189 853q0 51 51 51t51 -51v-134q0 -51 -51 -51t-51 51v134zM255 514q12 0 33 -7t41 -18.5t35 -26t15 -29.5v-5q-4 -15 -10.5 -19t-15.5 -4q-5 0 -11 0.5t-13 0.5q-53 -3 -56 -32q-2 -20 -16.5 -31t-33.5 -11
q-12 0 -18.5 7t-9.5 17.5t-3.5 22t-0.5 20.5q0 15 2.5 35t9.5 37.5t19.5 30t32.5 12.5zM169 1149q0 64 64 64t64 -64t-64 -64t-64 64zM110 481q8 0 18.5 -4t19.5 -11t15.5 -15t6.5 -17q0 -7 -3 -13q-9 -14 -24 -14q-8 0 -18.5 4.5t-19.5 11t-15.5 15t-6.5 16.5q0 11 8 19
t19 8zM225 634q9 0 16 -7t12 -16.5t8 -20t3 -18.5q0 -13 -8 -20.5t-21 -7.5q-21 0 -32 35q-6 15 -6 27t8 20t20 8zM331 604q29 0 29 -46q0 -45 -30 -45q-29 0 -29 41q0 16 4.5 33t25.5 17zM134 580q9 0 18 -6t16.5 -14.5t12.5 -18.5t5 -18q0 -12 -10 -19q-7 -7 -17 -7
q-8 0 -17 6t-16.5 14.5t-12.5 18.5t-5 18q0 11 7.5 18.5t18.5 7.5z" />
    <glyph glyph-name="j" unicode="j" horiz-adv-x="465" 
d="M-18 -478q8 0 19 -3q27 -8 51 -12.5t45 -4.5q32 0 55 11.5t36 43.5v480q0 51 51 51t51 -51v-488q0 -10 -3 -19q-23 -67 -72 -98.5t-116 -31.5q-56 0 -125 21q-38 12 -38 43q0 20 11.5 39t34.5 19zM188 873q0 51 51 51t51 -51v-342q0 -51 -51 -51t-51 51v342zM225 314
q20 0 32 -13t19 -32t9.5 -39.5t2.5 -34.5q0 -8 -0.5 -19t-3.5 -21t-9.5 -17t-17.5 -7q-19 0 -34 11.5t-16 31.5q-2 29 -56 31q-7 0 -13 -0.5t-11 -0.5q-13 0 -20.5 8t-7.5 21t15 27t35 26t41.5 20t34.5 8zM233 1213q64 0 64 -64t-64 -64t-64 64t64 64zM254 433
q13 0 20.5 -8.5t7.5 -21.5q0 -7 -2.5 -17.5t-7.5 -19.5t-12 -15.5t-16 -6.5q-28 0 -28 27q0 8 2.5 18.5t7 20.5t12 16.5t16.5 6.5zM344 379q10 0 18.5 -7t8.5 -18q0 -8 -4.5 -18t-12 -18.5t-16.5 -14.5t-17 -6q-11 0 -19.5 7.5t-8.5 18.5q0 8 5 17.5t12.5 18t16.5 14.5t17 6
zM148 403q30 0 31 -45q0 -46 -29 -46q-21 0 -25.5 17t-4.5 33q0 41 28 41zM369 279q16 0 23 -13q3 -7 3 -13q0 -9 -6 -17.5t-15 -14.5t-19 -10t-18 -4q-11 0 -19.5 8t-8.5 19q0 9 6.5 17t15.5 14t19.5 10t18.5 4z" />
    <glyph glyph-name="k" unicode="k" horiz-adv-x="856" 
d="M140 52v707q0 51 51 51t51 -51v-115l404 267q16 10 31 10q20 0 36 -19t16 -38q0 -21 -26 -38l-431 -285l464 -453q18 -18 18 -36q0 -19 -17.5 -36t-36.5 -17t-36 16l-422 412v-375q0 -51 -51 -51t-51 51zM140 1248v292q0 52 51 52t51 -52v-292q0 -51 -51 -51t-51 51z
M243 1033q12 0 33 -7t41 -18.5t35 -26t15 -29.5v-5q-4 -15 -11 -19t-16 -4q-5 0 -11 0.5t-13 0.5q-54 -2 -56 -31q-1 -20 -16.5 -31.5t-33.5 -11.5q-11 0 -17.5 7t-9.5 17t-3.5 21t-0.5 19q0 15 2.5 35.5t9.5 38.5t19.5 31t32.5 13zM212 1153q9 0 16.5 -6.5t12.5 -16t8 -20
t3 -18.5q0 -13 -8 -20.5t-21 -7.5q-9 0 -16.5 6.5t-12 15.5t-7 19.5t-2.5 18.5q0 13 7 21t20 8zM123 1100q8 0 17 -6t16.5 -15t12.5 -19t5 -18q0 -11 -8 -18t-19 -7q-8 0 -17 6t-17 14.5t-13 18.5t-5 17q0 10 9 18.5t19 8.5zM319 1123q29 0 29 -46q-1 -45 -31 -45
q-28 0 -28 41q0 16 4.5 33t25.5 17zM97 999q13 0 32 -10q29 -18 29 -35q0 -11 -8 -19t-19 -8q-14 0 -31 11q-29 15 -29 34q0 11 7.5 19t18.5 8z" />
    <glyph glyph-name="l" unicode="l" horiz-adv-x="476" 
d="M183 779q0 51 51 51t51 -51v-727q0 -51 -51 -51t-51 51v727zM183 1546q0 51 51 51t51 -51v-283q0 -51 -51 -51t-51 51v283zM245 1060q12 0 33 -7t41 -18.5t35 -26t15 -29.5v-5q-4 -15 -11 -19t-16 -4q-5 0 -11 0.5t-13 0.5q-54 -2 -56 -31q-1 -20 -15.5 -31.5
t-33.5 -11.5q-12 0 -18.5 7t-9.5 16.5t-3.5 20.5t-0.5 20q0 15 2.5 35.5t9.5 38.5t19.5 31t32.5 13zM214 1180q9 0 16.5 -6.5t12.5 -16t8 -20t3 -18.5q0 -20 -18 -26q-6 -3 -12 -3q-9 0 -15.5 6.5t-11.5 16.5t-7.5 20.5t-2.5 17.5q0 13 7 21t20 8zM125 1127q8 0 17 -6
t16.5 -15t12.5 -19t5 -18q0 -11 -8 -18t-19 -7q-8 0 -17 6t-17 14.5t-13 18.5t-5 17q0 10 9 18.5t19 8.5zM100 1026q8 0 18.5 -4t19.5 -10t15.5 -14t6.5 -17q0 -11 -8.5 -19t-19.5 -8q-7 0 -17.5 4t-19.5 10.5t-15.5 14.5t-6.5 16q0 11 8 19t19 8zM321 1150q29 0 29 -46
q-1 -45 -31 -45q-28 0 -28 41q0 16 4.5 33t25.5 17z" />
    <glyph glyph-name="m" unicode="m" horiz-adv-x="1213" 
d="M158 618q37 286 162 286q23 0 48 -9q53 -19 115.5 -97t138.5 -215q177 321 303 321q35 0 67 -26q56 -48 87 -210.5t31 -443.5q0 -82 -3 -174q-2 -50 -52 -50q-27 0 -38.5 13t-11.5 39q0 37 0.5 71.5t0.5 67.5q0 541 -80 608q-7 5 -14 5q-64 0 -241 -347q-15 -26 -42 -28
q-4 -1 -11 -1q-31 0 -44 28q-75 159 -137.5 243t-104.5 101q-2 1 -6 1q-21 0 -37 -49t-30 -148q-6 -44 -45 -44q-8 0 -12 1q-45 5 -45 44q0 8 1 13zM227 400q22 0 38 -17q14 -17 19.5 -46t5.5 -55q0 -8 -0.5 -19t-3.5 -21t-9.5 -17t-17.5 -7q-19 0 -34 11.5t-16 31.5
q-2 29 -56 31q-7 0 -13 -0.5t-11 -0.5q-9 0 -16 4.5t-10 19.5q-1 2 -1 7q0 13 14.5 27t34.5 25t41.5 18.5t34.5 7.5zM137 103v53q0 51 51 51t51 -51v-51q1 -9 1 -22.5v-31.5q0 -51 -50 -51t-52 50v30.5t-1 22.5zM224 486q11 35 33 35q28 0 28 -28q0 -12 -6 -27
q-12 -35 -32 -35q-13 0 -21 7t-8 21q0 12 6 27zM348 467q10 0 18 -7.5t8 -17.5q0 -7 -5 -17.5t-12.5 -19.5t-16.5 -15.5t-17 -6.5q-10 0 -19 8.5t-9 18.5q0 8 5.5 18t13.5 18.5t17 14.5t17 6zM371 367q15 0 24 -14q2 -4 3 -7t1 -7q0 -8 -6.5 -16t-16.5 -14.5t-20 -10.5
t-18 -4q-11 0 -19 9t-8 20q0 8 6.5 15.5t16 14t20 10.5t17.5 4zM122 445q0 45 29 45q30 2 30 -45q0 -45 -29 -45q-30 -1 -30 45z" />
    <glyph glyph-name="n" unicode="n" horiz-adv-x="1007" 
d="M142 680v203q0 52 52 52q51 0 51 -52v-17q58 19 115 28.5t118 9.5q66 0 120.5 -19.5t98.5 -55t77.5 -85t57.5 -109.5q37 -94 54 -216.5t17 -278.5v-44t-1 -45q-1 -50 -53 -50q-27 0 -38 13.5t-11 39.5q0 27 1 53t1 52q0 281 -65 438q-39 95 -103.5 150t-171.5 55
q-96 0 -217 -44v-78q0 -51 -51 -51q-52 0 -52 51zM194 256q51 0 51 -51v-152q0 -52 -51 -52q-52 0 -52 52v152q0 51 52 51zM222 467q20 0 47.5 -12.5t44.5 -22.5q34 -26 34 -44q0 -11 -8.5 -20.5t-19.5 -9.5q-5 0 -10.5 0.5t-12.5 0.5q-53 -1 -56 -31q-2 -19 -17 -31
t-34 -12q-11 0 -17.5 7t-9.5 17t-3.5 21t-0.5 19q0 15 2.5 35.5t9 38.5t19 31t32.5 13zM78 434q8 0 18 -4t19.5 -10.5t16 -15t6.5 -16.5q0 -11 -8 -19t-19 -8q-14 0 -31 11q-29 15 -29 34q0 11 8 19.5t19 8.5zM102 534q8 0 17.5 -6t17 -14.5t12.5 -18.5t5 -18
q0 -11 -7.5 -18.5t-18.5 -7.5q-8 0 -17 6t-17 14.5t-13 18t-5 17.5q0 11 7.5 19t18.5 8zM269 512q0 47 30 45q29 0 29 -46q-1 -45 -30 -45q-20 1 -24.5 15.5t-4.5 30.5zM193 587q9 0 16.5 -6.5t12 -15.5t7 -19.5t2.5 -18.5q0 -12 -8 -21t-20 -9q-9 0 -16 7t-12 17t-7.5 21
t-2.5 18q0 27 28 27z" />
    <glyph glyph-name="o" unicode="o" 
d="M201 428q37 0 45 -43q10 -55 35.5 -105.5t64 -89.5t89 -62t109.5 -23q124 0 214 101q91 103 91 250q0 74 -22 137t-69 114q-91 100 -214 100q-84 0 -154 -48q-18 -12 -32 -12q-19 0 -34.5 19.5t-15.5 37.5q0 23 25 39q48 31 101 48.5t110 17.5q92 0 167 -38.5
t128.5 -101.5t83 -144.5t29.5 -168.5q0 -187 -118 -318q-121 -135 -290 -135q-78 0 -145 29.5t-119 79t-86.5 116t-48.5 139.5q-1 5 -1 14q0 24 17.5 35.5t39.5 11.5zM219 621q19 0 35.5 -15t29 -36.5t19.5 -45t7 -40.5q0 -19 -10 -25t-27 -6q-30 0 -42 28q-7 18 -32 18
q-13 0 -31 -6q-10 -3 -18 -7t-16 -4q-12 0 -21 16q-4 5 -4 14q0 13 11.5 31.5t28.5 36t36 29.5t34 12zM176 699q2 45 31 44q20 -1 23.5 -16t3.5 -30q0 -46 -31 -45q-28 2 -28 36q0 3 0.5 5.5t0.5 5.5zM361 633q11 0 19 -8.5t8 -18.5q0 -7 -5.5 -17t-13.5 -18t-17 -14t-17 -6
q-11 0 -19 8t-8 19q0 8 5.5 17.5t13.5 17.5t17.5 14t16.5 6zM114 683q9 0 16.5 -6.5t12 -16.5t7 -20.5t2.5 -18.5q0 -12 -8 -20.5t-20 -8.5q-21 0 -32 36q-6 15 -6 26t8.5 20t19.5 9zM305 720q28 0 28 -28q0 -7 -3 -17.5t-8 -20.5t-12 -16.5t-16 -6.5q-28 0 -28 27
q0 8 2.5 18.5t8 20.5t12.5 16.5t16 6.5z" />
    <glyph glyph-name="p" unicode="p" horiz-adv-x="1029" 
d="M138 591v266v1v2v2v2v0v1v1q8 42 51 42h279q63 0 117.5 -12t110.5 -43q54 -30 97.5 -72t74 -93t47 -109.5t16.5 -121.5q0 -94 -35.5 -176t-97 -143t-143.5 -96.5t-175 -35.5h-12h-228v-557q0 -51 -51 -51t-51 51v672q0 51 51 51t51 -51v-12h225q5 0 6 -1q74 0 139 26
t113.5 72.5t76.5 110.5t28 140q0 72 -27 135.5t-74 111t-110 75t-134 27.5h-12h-231v-215q0 -51 -51 -51t-51 51zM204 384q12 0 32 -9t39.5 -23t34 -30t14.5 -31q0 -11 -7 -20t-19 -9q-6 0 -13 1.5t-15 3.5q-4 0 -7.5 0.5t-6.5 0.5q-40 0 -46 -25q-5 -18 -18 -27t-31 -9
q-31 0 -31 41q0 16 3.5 39.5t12 45t23 36.5t35.5 15zM262 422q2 17 9 29t26 12q24 -4 24 -35q0 -15 -6 -35.5t-25 -20.5q-2 0 -3 0.5t-3 0.5q-24 3 -24 32q0 5 2 17zM58 369q9 0 19 -4.5t18.5 -12t14.5 -16.5t6 -18q0 -11 -8.5 -18.5t-18.5 -7.5q-14 0 -32 15q-25 18 -25 35
q0 10 7.5 18.5t18.5 8.5zM186 506q20 0 27.5 -10t11.5 -28q1 -5 1.5 -9.5t0.5 -8.5q0 -15 -6.5 -24.5t-22.5 -9.5q-23 0 -31 39q-3 12 -3 21q0 24 22 30zM96 465q9 0 17.5 -6.5t15 -15.5t11 -19.5t4.5 -18.5q0 -10 -8.5 -18t-18.5 -8q-7 0 -15.5 6.5t-16 16t-12 20
t-4.5 17.5q0 10 8.5 18t18.5 8z" />
    <glyph glyph-name="q" unicode="q" horiz-adv-x="1040" 
d="M132 457q0 63 14 127t43 119t73.5 95t105.5 55l227 55h279l51 -42v-275q0 -51 -51 -51t-51 51v215h-231q-75 0 -140 -26.5t-113 -73.5t-76 -111t-28 -138q0 -75 28 -139t76.5 -110.5t113.5 -73t139 -26.5q1 1 6 1h225v12q0 51 51 51t51 -51v-672q0 -51 -51 -51t-51 51
v557h-228q-63 0 -117.5 12.5t-109.5 42.5q-54 30 -98 72.5t-74.5 93.5t-47 109.5t-16.5 120.5zM859 384q20 0 34 -13q21 -21 30.5 -57.5t9.5 -65.5q0 -41 -31 -41q-17 0 -31 9t-18 27q-5 25 -46 25q-3 0 -6 -0.5t-7 -0.5q-8 -2 -15.5 -3.5t-13.5 -1.5q-8 0 -13.5 4t-10.5 16
q-2 3 -2 10q0 13 13.5 29t32.5 30t39.5 23.5t34.5 9.5zM966 465q11 0 19.5 -8t8.5 -19q0 -7 -4.5 -17t-11 -19t-15 -15.5t-16.5 -6.5q-11 0 -19.5 7t-8.5 19q0 8 4.5 18t11 19t15 15.5t16.5 6.5zM1004 369q11 0 19 -8t8 -19q0 -8 -6 -17t-14.5 -16t-18.5 -11.5t-18 -4.5
q-11 0 -19 8t-8 19q0 8 6 17t14.5 16t18.5 11.5t18 4.5zM839 468q4 19 11.5 28.5t27.5 9.5q21 -6 21 -30q0 -7 -2 -17.5t-6 -20t-10.5 -16t-15.5 -6.5q-14 0 -21.5 8.5t-7.5 22.5q0 9 3 21zM766 463q19 0 26 -12.5t10 -28.5q0 -4 0.5 -7t0.5 -6q0 -33 -24 -36q-2 0 -3 -0.5
t-3 -0.5q-19 0 -25 20t-6 35q0 32 24 36z" />
    <glyph glyph-name="r" unicode="r" horiz-adv-x="910" 
d="M146 611v257q0 52 51 52t51 -52v-103q63 69 143.5 106.5t174.5 37.5q69 0 134 -22t120 -64q22 -18 22 -39q0 -18 -16 -37t-35 -19q-14 0 -33 14q-42 31 -90.5 48t-101.5 17q-54 0 -103.5 -17t-90.5 -48t-70.5 -74.5t-43.5 -95.5q-10 -39 -42 -39q-21 0 -37.5 10.5
t-19.5 33.5q-13 13 -13 34zM248 394q12 0 33 -7t41 -18.5t35 -26t15 -29.5v-5q-4 -15 -11 -19t-16 -4q-5 0 -11 0.5t-12 0.5q-53 -1 -56 -31q-2 -19 -17 -31t-34 -12q-11 0 -17.5 7t-9.5 17t-3.5 21t-0.5 19q0 15 2.5 35.5t9.5 38.5t19.5 31t32.5 13zM197 187q51 0 51 -51
v-83q0 -52 -51 -52t-51 52v83q0 51 51 51zM103 360q8 0 18.5 -4t19.5 -10t15.5 -14t6.5 -17q0 -11 -8 -19t-19 -8q-14 0 -31 11q-29 15 -29 34q0 11 8 19t19 8zM324 484q29 0 29 -46q-1 -45 -31 -45q-29 0 -29 46q2 45 31 45zM217 514q21 0 34 -34q5 -17 5 -27
q0 -28 -28 -28q-9 0 -16.5 6.5t-12 15.5t-7 19.5t-2.5 18.5q0 13 7 21t20 8zM127 460q8 0 17 -6t16.5 -15t13 -18.5t5.5 -17.5q0 -11 -8.5 -18t-18.5 -7q-8 0 -17 6t-16.5 14.5t-12.5 18t-5 17.5q0 11 7.5 18.5t18.5 7.5z" />
    <glyph glyph-name="s" unicode="s" horiz-adv-x="736" 
d="M138 696q5 53 26.5 96.5t56.5 74.5t80.5 48.5t96.5 17.5q71 0 132.5 -38t92.5 -102q7 -14 7 -28q0 -26 -30 -40q-15 -8 -29 -8q-25 0 -40 30q-20 39 -56 61.5t-80 22.5q-32 0 -60.5 -12.5t-49.5 -33.5t-33.5 -49.5t-12.5 -60.5q0 -14 4.5 -32t10.5 -31q7 -14 7 -27
q0 -21 -19.5 -34.5t-39.5 -13.5q-14 0 -24.5 10.5t-18 25.5t-11.5 31t-6 27q-4 20 -4 48v17zM202 217q25 0 41 -30q20 -37 56.5 -61.5t79.5 -24.5q33 0 61.5 12t49 33t32.5 49.5t12 61.5q0 18 -3 32.5t-10 31.5q-7 14 -7 26q0 21 20 34.5t39 13.5q26 0 41 -32q8 -21 12 -35
t6.5 -27.5t3 -27.5t0.5 -35q0 -51 -21.5 -94.5t-56.5 -75t-81 -49.5t-95 -18q-73 0 -135.5 36.5t-94.5 102.5q-8 13 -8 29q0 20 19.5 34t38.5 14zM423 509q11 0 32 -7t42 -18.5t36.5 -25.5t15.5 -28q0 -11 -8.5 -20.5t-19.5 -9.5q-5 0 -11 0.5t-13 0.5q-54 -2 -56 -31
q-1 -20 -16.5 -31.5t-33.5 -11.5q-11 0 -17.5 7t-9.5 17t-3.5 21t-0.5 19q0 15 2.5 35.5t9 38.5t19 31t32.5 13zM278 476q8 0 18.5 -4t20 -10.5t16 -14.5t6.5 -17q0 -11 -8 -19t-19 -8q-14 0 -31 11q-29 15 -29 34q0 11 7.5 19.5t18.5 8.5zM303 576q8 0 17 -6t16.5 -14.5
t12.5 -18t5 -17.5q0 -11 -7.5 -19t-18.5 -8q-7 0 -16.5 6t-17 15t-13 19t-5.5 17q0 10 8.5 18t18.5 8zM393 629q21 0 34 -34q5 -17 5 -26q0 -13 -7.5 -21t-20.5 -8q-9 0 -16 6.5t-12.5 16t-8 20t-2.5 18.5q0 12 8 20t20 8zM500 599q19 0 23.5 -16t4.5 -30q0 -45 -30 -45
q-29 2 -29 46q1 46 31 45z" />
    <glyph glyph-name="t" unicode="t" horiz-adv-x="953" 
d="M142 886v661q0 51 51 51t51 -51v-661h526q51 0 51 -51t-51 -51h-526v-267q0 -51 -51 -51t-51 51v267q-47 3 -47 51q0 46 47 51zM296 187q15 0 34 -16l41 -31q62 -35 132 -35q56 0 103.5 20.5t82 56.5t53.5 84.5t19 103.5q0 52 53 52q29 0 39 -15t10 -41q0 -48 -11 -92
t-34 -86q-24 -43 -58.5 -82t-75.5 -66.5t-87.5 -39t-93.5 1.5l-183 50q-3 2 -7 5q-6 5 -23 15q-13 10 -19.5 15.5t-8.5 7.5q-20 20 -20 37q0 19 17.5 37t36.5 18zM224 326q12 0 33 -7t41 -18t35 -26t15 -30v-5q-4 -15 -11 -19t-16 -4q-5 0 -11 0.5t-13 0.5q-54 -3 -56 -32
q-1 -20 -15.5 -31t-33.5 -11q-12 0 -18.5 7t-9.5 16.5t-3.5 20.5t-0.5 20q0 15 2.5 35.5t9 38.5t19 31t33.5 13zM104 392q8 0 17 -6t16.5 -14.5t12.5 -18t5 -17.5q0 -11 -8 -19t-19 -8q-7 0 -16.5 6t-17 15t-13 19t-5.5 17q0 11 8.5 18.5t19.5 7.5zM300 416q19 0 23.5 -16
t4.5 -30q0 -45 -30 -45q-29 0 -29 46q2 45 31 45zM78 292q8 0 18.5 -4t20 -10t16 -14.5t6.5 -17.5q0 -11 -8.5 -19t-18.5 -8q-7 0 -17.5 4t-20 10.5t-16 15t-6.5 16.5q0 11 7.5 19t18.5 8zM183 444q6 2 10 2q20 0 34 -35q5 -17 5 -26q0 -19 -17 -27q-6 -2 -10 -2
q-9 0 -16 6.5t-12.5 16t-8.5 20t-3 18.5q0 20 18 27z" />
    <glyph glyph-name="u" unicode="u" horiz-adv-x="986" 
d="M302 223q21 0 40 -25q31 -47 72.5 -70.5t98.5 -23.5q104 0 249 82v669q0 51 51 51q52 0 52 -51v-813q0 -50 -52 -50q-51 0 -51 50v28q-63 -31 -127.5 -49.5t-136.5 -18.5q-151 0 -241 138q-12 18 -12 33q0 19 19.5 34.5t37.5 15.5zM137 860q1 27 14 38t39 11t37.5 -14
t11.5 -39q-3 -49 -3 -90q0 -40 1.5 -80t5.5 -80v-8q0 -26 -15 -37t-39 -11q-44 0 -47 47q-5 42 -6.5 85t-1.5 86q0 41 3 92zM237 401q18 0 33.5 -10.5t29 -25.5t23.5 -32t17 -31q6 -15 6 -26q0 -17 -13.5 -24t-28.5 -7q-22 0 -35 19q-7 12 -24 12t-40 -13
q-10 -5 -18.5 -11.5t-16.5 -6.5q-11 0 -20 12q-8 8 -8 21q0 12 9 33t23 41t30.5 34.5t32.5 14.5zM195 516q19 0 26.5 -20.5t7.5 -36.5q0 -14 -6.5 -23.5t-21.5 -9.5q-20 0 -27 20.5t-7 37.5q0 14 7 23t21 9zM118 437q9 0 17 -6.5t14 -15.5t10 -19.5t4 -18.5q0 -11 -8 -18.5
t-19 -7.5q-8 0 -16.5 6.5t-15 15.5t-10.5 19.5t-4 18.5q0 11 8.5 18.5t19.5 7.5zM335 412q15 29 34 29q4 0 7 -1t7 -3q13 -9 13 -24q0 -7 -4 -17.5t-10.5 -19.5t-14.5 -15.5t-16 -6.5q-11 0 -19.5 7t-8.5 18q0 14 12 33zM302 514q23 0 23 -33q0 -7 -1.5 -17t-5 -19t-9.5 -15
t-15 -6q-2 0 -3 0.5t-3 0.5q-24 3 -24 32q0 19 7.5 38t30.5 19z" />
    <glyph glyph-name="v" unicode="v" horiz-adv-x="931" 
d="M378 367q28 0 43 -35l57 -146l271 689q14 34 42 34q21 0 39 -13t18 -36q0 -12 -4 -23l-316 -803q-13 -33 -42 -33q-8 0 -17.5 2t-16.5 7q-18 8 -25 27l-102 258q-5 15 -5 24q0 21 19 34.5t39 13.5zM164 912q28 0 42 -34l59 -150q5 -11 5 -24q0 -21 -19.5 -34.5
t-39.5 -13.5q-27 0 -41 35l-59 150q-6 14 -6 25q0 21 20 33.5t39 12.5zM312 528q20 0 47.5 -12.5t44.5 -22.5q14 -10 23.5 -21t9.5 -29q-4 -15 -10.5 -19.5t-16.5 -4.5q-5 0 -10.5 0.5t-12.5 0.5q-53 -1 -56 -31q-2 -19 -17 -31t-34 -12q-11 0 -17.5 7t-9.5 17t-3.5 21
t-0.5 19q0 15 2.5 35.5t9 38.5t19 31t32.5 13zM192 595q8 0 17.5 -6t17 -14.5t12.5 -18.5t5 -18q0 -11 -7.5 -18.5t-18.5 -7.5q-8 0 -17 6t-17 14.5t-13.5 18.5t-5.5 18q0 10 8.5 18t18.5 8zM281 648q10 0 17.5 -6.5t12.5 -15.5t7.5 -19.5t2.5 -18.5q0 -12 -8 -21t-20 -9
q-21 0 -32 36q-6 17 -6 28q0 26 26 26zM359 573q0 47 30 45q29 0 29 -45q-2 -47 -31 -45q-20 0 -24 15t-4 30zM168 495q8 0 18 -4t19.5 -10.5t16 -15t6.5 -16.5q0 -11 -7.5 -18.5t-18.5 -7.5q-8 0 -18.5 3.5t-20 9.5t-16 14t-6.5 17q0 11 8 19.5t19 8.5z" />
    <glyph glyph-name="w" unicode="w" horiz-adv-x="1202" 
d="M213 351q40 0 46 -45q10 -72 23.5 -118.5t27.5 -72.5q8 -14 14 -14q16 0 38.5 23t47.5 59t50 79t46.5 83t37 71l21.5 43q2 3 2.5 5t1.5 4q0 1 1 2l4 9q14 32 41 32q15 0 29.5 -8t21.5 -22q0 -3 1.5 -4.5t2.5 -3.5q25 -75 54.5 -133t59 -102t57 -74.5t48.5 -50.5
q21 -19 29 -19q1 0 1.5 0.5t1.5 0.5q15 5 33 57q51 146 51 552q0 35 -0.5 71.5t-1.5 75.5q0 52 53 52q49 0 49 -50q1 -38 1 -74.5v-71.5q0 -427 -55 -588q-8 -23 -19.5 -45.5t-27 -40.5t-36 -29t-47.5 -11q-49 0 -99 43q-87 73 -201 305q-109 -216 -192 -293
q-52 -48 -106 -48q-61 0 -98 58q-23 34 -39 92.5t-28 142.5q-1 4 -1 13q0 25 17 35t39 10zM137 705v74t2 80q1 50 52 50q50 0 50 -52q0 -42 -1 -79.5t-1 -72.5q0 -51 -51 -51t-51 51zM157 489q20 23 44 23q10 0 19 -3q12 -5 27.5 -19t28.5 -32t22 -37t9 -34q0 -17 -13.5 -24
t-28.5 -7q-22 0 -35 20q-7 12 -25 12q-15 0 -39 -12q-11 -5 -19 -11t-16 -6q-11 0 -19.5 11t-8.5 22t6 24.5t14.5 27t17.5 25.5t16 20zM81 552q8 0 16.5 -6.5t15 -16t10.5 -19.5t4 -18q0 -11 -8.5 -19t-19.5 -8q-19 0 -34 29q-11 17 -11 31q0 11 8 19t19 8zM161 629
q25 0 32 -40q0 -4 0.5 -7t0.5 -6q0 -15 -6 -26t-23 -11q-9 0 -15.5 6.5t-10 15.5t-5.5 19t-2 17q0 32 29 32zM334 550q4 0 7 -1t7 -3q12 -9 12 -22q0 -8 -4 -18.5t-10.5 -19.5t-14.5 -15.5t-17 -6.5q-11 0 -19 7.5t-8 18.5q0 8 4 18.5t11 19.5t15 15.5t17 6.5zM262 626
q16 0 22.5 -9.5t6.5 -24.5q0 -20 -8 -38t-31 -18q-11 0 -17 9.5t-6 23.5q0 16 7 36.5t26 20.5zM569 467l1 2q-2 -4 -2 -5q-1 -1 -1 -2l1 1q0 1 0.5 2t0.5 2z" />
    <glyph glyph-name="x" unicode="x" horiz-adv-x="931" 
d="M149 83l274 371l-8 10q-13 16 -13 33q0 19 18 34.5t36 15.5q12 0 29 -10l257 348q18 24 39 24q19 0 37.5 -16t18.5 -36q0 -15 -12 -32l-275 -371l275 -371q12 -18 12 -33q0 -21 -23 -39q-18 -12 -33 -12q-22 0 -39 23l-255 346l-256 -346q-17 -23 -39 -23
q-19 0 -37.5 15.5t-18.5 35.5q0 16 13 33zM357 688q12 0 33 -7t41 -18.5t35 -26t15 -29.5v-5q-4 -15 -10.5 -19t-15.5 -4q-5 0 -11 0.5t-13 0.5q-53 -1 -56 -31t-32 -39q-9 -4 -18 -4q-12 0 -18.5 7t-9.5 16.5t-3.5 20.5t-0.5 20q0 15 2.5 35.5t9.5 38.5t19.5 31t32.5 13z
M192 909q21 0 39 -24l19 -25q13 -17 13 -33q0 -20 -18.5 -36t-37.5 -16q-21 0 -39 24l-19 26q-13 17 -13 33q0 9 5.5 18t14 16.5t18 12t18.5 4.5zM327 808q9 0 16 -6.5t12 -16.5t8 -20t3 -18q0 -14 -8 -21.5t-21 -7.5q-21 0 -32 35q-6 15 -6 27t8 20t20 8zM433 778
q29 0 29 -46q0 -45 -30 -45q-29 0 -29 41q0 16 4.5 33t25.5 17zM236 755q8 0 17.5 -6t17 -15t12.5 -19t5 -18q0 -12 -10 -19q-7 -7 -17 -7q-8 0 -17 6t-16.5 14.5t-12.5 18.5t-5 18q0 10 8 18.5t18 8.5zM212 655q12 0 32 -11q28 -19 28 -35q0 -11 -8 -19t-19 -8
q-8 0 -18.5 4t-19.5 10.5t-15.5 14.5t-6.5 16q0 11 8 19.5t19 8.5z" />
    <glyph glyph-name="y" unicode="y" horiz-adv-x="996" 
d="M186 -175q23 0 35 -12.5t12 -33.5q0 -2 -0.5 -5t-0.5 -5q0 -20 0.5 -35.5t3 -30.5t7.5 -30.5t15 -34.5q17 -33 43 -58.5t57.5 -43.5t67.5 -27t72 -9q55 0 104 18.5t85.5 52.5t57.5 80.5t21 103.5q-2 10 -2 12v447q-1 -3 -2.5 -5.5t-1.5 -4.5q-19 -36 -45 -72t-58 -64.5
t-71 -46.5t-84 -18q-54 0 -100.5 27t-81.5 68q-15 18 -15 34q0 19 19 36.5t37 17.5q19 0 37 -21q20 -24 46 -42t59 -18q29 0 54 14.5t46 36.5t37.5 47.5t28.5 47.5q80 158 95 403v207q0 50 48 54q25 0 39 -11t15 -37v-3q1 -1 1 -6v-1q2 -26 2 -52v-51v-49t-2 -48v-882
q1 -7 1 -14v-14q0 -75 -30 -139.5t-81 -111t-118 -73t-141 -26.5q-72 0 -139 26.5t-118 73t-82 110t-31 137.5q0 18 1 32.5t6.5 25.5t17.5 17t33 6zM133 847q0 52 51 52t51 -50q2 -77 8 -152.5t17 -151.5q1 -4 1 -12q0 -26 -18.5 -37t-41.5 -11q-34 0 -42 44
q-14 78 -19 158.5t-7 159.5zM280 336q11 0 31 -7t39.5 -18.5t34 -25.5t14.5 -28q0 -11 -7.5 -20.5t-18.5 -9.5q-5 0 -11 0.5t-12 0.5q-50 -1 -53 -31q-2 -17 -16 -30t-32 -13q-25 0 -29 40q-1 6 -1 12.5v13.5q0 14 2 34t9 38t19 31t31 13zM166 403q8 0 16.5 -6t15.5 -15
t11 -18.5t4 -17.5q0 -10 -7 -18.5t-18 -8.5q-16 0 -33 24q-15 20 -15 33q0 11 7.5 19t18.5 8zM142 303q8 0 17.5 -4t18 -10.5t14.5 -14.5t6 -16q0 -11 -6 -20t-18 -9t-30 12q-28 16 -28 34q0 11 7.5 19.5t18.5 8.5zM324 381q0 46 28 45q28 0 28 -46q-1 -45 -29 -45
q-19 0 -23 16t-4 30zM251 456q19 0 32 -34q5 -17 5 -26q0 -11 -8 -20.5t-19 -9.5q-9 0 -15.5 7t-11 16.5t-7 20.5t-2.5 18q0 12 7 20t19 8z" />
    <glyph glyph-name="z" unicode="z" horiz-adv-x="931" 
d="M136 53q0 21 13 34l178 245q17 23 38 23q18 0 37.5 -15t19.5 -35q0 -15 -12 -33l-123 -168h486q51 0 51 -51t-51 -51h-586q-51 0 -51 51zM136 858q0 51 51 51h586q51 0 51 -51q0 -21 -13 -34l-145 -199q-18 -24 -38 -24q-17 0 -33 13q-24 17 -24 38q0 16 13 33l89 122
h-486q-51 0 -51 51zM469 501q20 0 32.5 -13t19.5 -32t9.5 -39t2.5 -35q0 -9 -0.5 -20t-3.5 -20.5t-9.5 -16.5t-18.5 -7q-20 0 -34.5 11t-15.5 32q-2 29 -56 31q-7 0 -13 -0.5t-11 -0.5q-13 0 -20 8.5t-7 20.5q0 13 14.5 27t34.5 26t41.5 20t34.5 8zM589 567q11 0 19 -8
t8 -19q0 -8 -5 -18t-12.5 -18.5t-16.5 -14.5t-17 -6q-10 0 -18.5 8t-8.5 18q0 8 5 18t12.5 19t16.5 15t17 6zM393 590q30 0 31 -45q0 -46 -29 -46t-31 45q0 46 29 46zM614 466q16 0 23 -13q3 -7 3 -13q0 -9 -6 -17.5t-15 -14.5t-19 -10t-18 -4q-11 0 -19.5 8t-8.5 19
q0 9 6.5 17t15.5 14t19.5 10t18.5 4zM501 619q6 0 9 -1q17 -8 17 -28q0 -8 -5 -25q-14 -35 -33 -35q-28 0 -28 28q0 9 2.5 19.5t7.5 19.5t12.5 15.5t17.5 6.5z" />
    <glyph glyph-name="one" unicode="1" horiz-adv-x="726" 
d="M144 1236l247 220q17 16 36 16q23 0 36 -18.5t13 -39.5l-4 -497q0 -51 -51 -51q-51 2 -51 52l3 385l-161 -143q-17 -16 -35 -16q-19 0 -36.5 18t-17.5 37t21 37zM144 53q0 51 51 51h176l3 319q2 51 52 51t50 -51l-3 -319h86q51 0 51 -51t-51 -51h-364q-51 0 -51 51z
M410 689q12 0 33 -7t41 -18.5t35 -26t15 -29.5v-5q-4 -15 -10.5 -19t-15.5 -4q-5 0 -11 0.5t-13 0.5q-53 -1 -56 -31q-2 -19 -17 -31t-34 -12q-11 0 -17.5 7t-9.5 17.5t-3.5 22t-0.5 20.5q0 15 2.5 35t9.5 37.5t19.5 30t32.5 12.5zM265 656q8 0 18.5 -4t20 -10.5t16 -14.5
t6.5 -17q0 -5 -4 -13q-9 -14 -24 -14q-12 0 -31 11q-29 15 -29 34q0 11 8 19.5t19 8.5zM486 779q29 0 29 -46q0 -45 -30 -45q-29 1 -29 42q0 16 4.5 32.5t25.5 16.5zM289 756q8 0 17.5 -6t17 -14.5t12.5 -18.5t5 -18q0 -11 -7.5 -18.5t-18.5 -7.5q-8 0 -17 6t-17 14.5
t-13 18t-5 17.5q0 11 7.5 19t18.5 8zM380 809q9 0 16 -6.5t12 -15.5t7.5 -19.5t2.5 -18.5q0 -12 -8 -21t-20 -9q-8 0 -15 7t-12 17t-8 20.5t-3 17.5q0 13 8 20.5t20 7.5z" />
    <glyph glyph-name="two" unicode="2" horiz-adv-x="953" 
d="M126 1157q9 68 40 125.5t78.5 99.5t108 66t128.5 24q74 0 140 -28t115 -77t77.5 -114t28.5 -139q0 -32 -6 -67l-4 -11q-5 -16 -16 -39.5t-27 -56.5q-12 -26 -23.5 -49.5t-22.5 -45.5q-14 -30 -40 -30q-20 0 -40 13t-20 34q0 12 8 28q23 45 44.5 90t40.5 92q3 21 3 40
q0 55 -20 102t-54.5 81.5t-82 54.5t-101.5 20q-48 0 -91.5 -17.5t-77.5 -47.5t-56.5 -71t-28.5 -89q-3 -28 -17 -36.5t-40 -8.5q-23 0 -34 12t-11 32q0 8 1 13zM136 54q0 20 13 34q76 97 145 198t134 206q17 27 40 27q19 0 38 -15.5t19 -35.5q0 -14 -10 -30
q-54 -85 -109.5 -168t-115.5 -165h495q52 0 52 -51t-52 -51h-598q-51 0 -51 51zM573 685q20 0 32.5 -13t19.5 -32t9.5 -39t2.5 -35q0 -9 -0.5 -20t-3.5 -20.5t-9.5 -16.5t-18.5 -7q-19 0 -34 11.5t-16 31.5q-2 29 -55 31q-7 0 -13 -0.5t-12 -0.5q-13 0 -20 8.5t-7 20.5
q0 13 14.5 27t34.5 26t41.5 20t34.5 8zM693 751q11 0 19 -8t8 -19q0 -7 -5 -17t-13 -19t-16.5 -15t-16.5 -6q-10 0 -19 8.5t-9 18.5q0 8 5.5 17.5t13 18.5t17 15t16.5 6zM603 804q13 0 20.5 -8.5t7.5 -21.5q0 -8 -5 -25q-13 -34 -33 -34q-13 0 -21 7t-8 21q0 8 3 18t8 20
t12 16.5t16 6.5zM468 728q0 46 29 46q21 0 25.5 -16.5t4.5 -32.5q0 -42 -29 -42q-28 0 -30 45zM718 650q16 0 23 -13q3 -7 3 -13q0 -8 -6.5 -16.5t-15.5 -15t-19 -10.5t-18 -4q-11 0 -19 8.5t-8 19.5q0 8 6.5 16t16 14t20 10t17.5 4z" />
    <glyph glyph-name="three" unicode="3" horiz-adv-x="1040" 
d="M159 1427q1 50 52 50q26 0 75.5 -1t108 -6.5t119.5 -16.5t111 -30.5t81.5 -49.5t31.5 -73q0 -110 -241 -261q123 -24 223 -100.5t152 -191.5q6 -15 6 -26q0 -21 -19 -35t-39 -14q-28 0 -41 31q-23 53 -62.5 98t-89.5 77.5t-107 51t-115 18.5q-27 0 -50 -4q-3 -1 -8 -1
q-7 0 -13 3q-5 -2 -10 -3t-10 -1q-22 0 -36 19t-14 39q0 26 29 40q174 87 259 152t85 100q0 5 -1 7q-16 32 -119 51t-308 25q-50 2 -50 52zM182 157q12 0 28 -8q90 -45 186 -45q90 0 158.5 31t137.5 89q15 13 28 28.5t24 32.5q16 25 39 25q18 0 36.5 -15t18.5 -34
q0 -16 -10 -33q-3 -5 -10.5 -15l-19.5 -26q-81 -88 -179.5 -136t-218.5 -48q-124 0 -235 54q-31 15 -31 40q0 19 13.5 39.5t34.5 20.5zM836 505q13 0 31 -13t34 -31t27.5 -38t11.5 -34q0 -11 -8.5 -21.5t-19.5 -10.5q-8 0 -15.5 5t-17.5 10q-22 9 -38 9q-19 0 -27 -14
t-18.5 -18.5t-25.5 -4.5q-34 0 -34 30q0 15 8.5 37.5t23 43.5t32.5 35.5t36 14.5zM836 582q3 44 33 43q27 -2 27 -38q0 -2 -0.5 -4.5t-0.5 -5.5q0 -23 -9.5 -33.5t-23.5 -9.5q-27 2 -27 37q0 2 0.5 5t0.5 6zM700 533q8 0 16.5 -6t16 -15t12 -19t4.5 -18q0 -13 -12 -21
q-7 -6 -15 -6t-17 6.5t-16 15.5t-11.5 19t-4.5 18q0 11 8 18.5t19 7.5zM765 613q9 0 16 -6.5t11 -15.5t6 -19t2 -18q0 -14 -7 -22.5t-21 -8.5q-10 0 -16.5 6.5t-10.5 15.5t-6 19.5t-2 18.5q0 30 28 30zM950 554q12 0 20 -8t8 -20q0 -7 -3.5 -17.5t-9.5 -20t-13.5 -16
t-15.5 -6.5q-11 0 -19 8t-8 19q0 8 3 18t8.5 20t13 16.5t16.5 6.5z" />
    <glyph glyph-name="four" unicode="4" horiz-adv-x="1018" 
d="M135 605q6 18 16 43q8 21 19.5 53t26.5 75q62 171 204 633q12 37 44 37q21 0 39 -11.5t18 -35.5q0 -9 -3 -20q-57 -188 -116.5 -372t-125.5 -370h518v112q0 52 51 52t51 -52v-700q0 -50 -51 -50t-51 50v486h-592q-12 0 -20 4zM775 1428q0 51 51 51t51 -51v-219
q0 -51 -51 -51t-51 51v219zM782 979q13 5 22 5q14 0 31.5 -13t34 -31t27.5 -38t11 -35q0 -11 -8.5 -21t-19.5 -10q-8 0 -15.5 4.5t-18.5 9.5q-25 10 -38 10q-18 0 -26 -14t-18.5 -18.5t-26.5 -4.5q-33 0 -33 31q0 15 7.5 34t19.5 37t25.5 33t25.5 21zM667 1012q8 0 17 -6.5
t16 -15.5t11.5 -19t4.5 -18q0 -11 -8 -19t-19 -8q-17 0 -34 26q-15 20 -15 33q0 10 8.5 18.5t18.5 8.5zM885 1001q12 31 33 31q12 0 20 -7.5t8 -19.5q0 -7 -3.5 -17.5t-9.5 -20.5t-13.5 -16.5t-15.5 -6.5q-11 0 -19 8t-8 19q0 14 8 30zM733 1092q9 0 16 -6.5t11 -15.5
t6 -19.5t2 -18.5q0 -30 -28 -30q-9 0 -16 6.5t-11 15.5t-6 19.5t-2 18.5q0 30 28 30zM804 1060q3 44 33 43q27 -2 27 -37q0 -2 -0.5 -4.5t-0.5 -5.5q0 -23 -9.5 -33.5t-23.5 -9.5q-27 2 -27 36q0 2 0.5 5t0.5 6z" />
    <glyph glyph-name="five" unicode="5" horiz-adv-x="1072" 
d="M136 850v572q0 51 52 51h630q51 0 51 -51q0 -52 -51 -52h-579v-430q99 48 208 48q89 0 167.5 -28t142 -79t108.5 -122t67 -157q1 -5 1.5 -8.5t0.5 -7.5q0 -25 -18 -36t-40 -11q-35 0 -44 41q-5 23 -14 46.5t-20 47.5q-54 99 -145 155.5t-204 56.5q-126 0 -228 -75
q-16 -12 -33 -12q-52 0 -52 51zM185 193q16 0 33 -13q104 -77 225 -77q169 0 286 117q18 18 35 18q19 0 37 -17.5t18 -36.5q0 -17 -17 -36q-146 -146 -350 -146q-161 0 -295 96q-24 17 -24 38q0 9 5 19t12.5 18.5t16.5 14t18 5.5zM848 385q20 0 32.5 -13t19.5 -32t9.5 -39
t2.5 -35q0 -9 -0.5 -20t-3.5 -20.5t-9.5 -16.5t-18.5 -7q-19 0 -34 11.5t-16 31.5q-2 29 -55 31q-7 0 -13 -0.5t-11 -0.5q-13 0 -20.5 8t-7.5 21t14.5 27t34.5 26t41.5 20t34.5 8zM878 504q13 0 20.5 -8.5t7.5 -21.5q0 -7 -2.5 -17.5t-7.5 -19.5t-12 -15.5t-16 -6.5
q-29 0 -29 29q0 8 3 18t8 19.5t12 16t16 6.5zM743 428q0 46 29 46q30 0 31 -45q0 -46 -29 -46t-31 45zM968 451q11 0 19 -8t8 -19q0 -7 -5 -17t-13 -19t-16.5 -15t-16.5 -6q-10 0 -19 8.5t-9 18.5q0 8 5.5 17.5t13 18.5t17 15t16.5 6zM993 350q16 0 23 -13q3 -7 3 -13
q0 -8 -6.5 -16.5t-15.5 -15t-19 -10.5t-18 -4q-11 0 -19 8.5t-8 19.5q0 8 6.5 16t16 14t20 10t17.5 4z" />
    <glyph glyph-name="six" unicode="6" horiz-adv-x="1072" 
d="M149 613q17 104 56 216.5t91.5 223t113 214t119.5 190.5q16 25 39 25q9 0 19 -4.5t18.5 -11.5t14.5 -16t6 -18q0 -15 -12 -32q-54 -74 -119 -187.5t-124 -244.5q-17 -38 -30 -68.5t-21 -53.5q105 76 225 76q95 0 172 -39t132 -103.5t85 -148t30 -172.5t-30.5 -171.5
t-86 -146t-132.5 -101.5t-169 -38q-76 0 -138 27.5t-120 72.5q-21 17 -21 37q0 19 17 38t37 19q17 0 33 -16q5 -5 11.5 -9.5t13.5 -9.5q13 -11 28 -18q66 -39 139 -39q71 0 129 30.5t99.5 80t64.5 113.5t23 130q0 6 -0.5 12t-0.5 13q0 65 -23.5 125.5t-65.5 107.5t-99 75.5
t-124 28.5q-93 0 -172 -59q-32 -29 -61.5 -60t-58.5 -64q-3 -11 -4.5 -21t-3.5 -19q-6 -44 -43 -44q-21 0 -40 10t-19 34q0 4 0.5 7.5t1.5 8.5zM193 339q17 35 56 35q12 -2 32 -13t39 -26.5t33 -32.5t14 -32t-15.5 -24.5t-29.5 -9.5q-16 0 -30 12q-7 6 -17 6q-16 0 -44 -23
q-11 -9 -18 -17t-17 -8q-15 0 -23 11.5t-8 25.5q0 23 9.5 49.5t18.5 46.5zM156 473q6 3 12 3q9 0 16.5 -6.5t13 -16.5t8.5 -20.5t3 -18.5q0 -18 -16 -24q-6 -3 -12 -3q-8 0 -15.5 7t-13.5 16.5t-9.5 20.5t-3.5 18q0 18 17 24zM353 444q29 0 29 -30q0 -8 -2.5 -18.5t-7 -19.5
t-11.5 -15.5t-16 -6.5q-13 0 -20.5 8.5t-7.5 21.5q0 8 2.5 18t7 19.5t11 16t15.5 6.5zM111 381q8 0 17 -6t17 -14t13.5 -17.5t5.5 -17.5q0 -11 -7.5 -18.5t-18.5 -7.5q-8 0 -17.5 5.5t-18 13.5t-14 17t-5.5 17q0 11 8.5 19.5t19.5 8.5zM269 498q20 0 25 -17.5t5 -32.5
q0 -38 -26 -40q-29 -1 -33 43q0 3 -0.5 5.5t-0.5 5.5q0 17 6.5 26.5t23.5 9.5z" />
    <glyph glyph-name="seven" unicode="7" 
d="M132 1419q0 51 52 51h723q51 0 51 -51q0 -20 -10 -31q-85 -136 -165.5 -272t-157.5 -276q-17 -29 -41 -29q-19 0 -38 14.5t-19 34.5q0 14 9 30q66 122 136 240.5t144 236.5h-632q-52 0 -52 52zM157 70q35 107 78.5 211t93.5 205q13 31 40 31q20 0 39.5 -13.5t19.5 -34.5
q0 -13 -7 -27q-49 -98 -91 -198t-75 -205q-13 -36 -44 -36q-20 0 -39 11t-19 34q0 11 4 22zM460 688q20 0 32.5 -13t19.5 -32t9.5 -39t2.5 -35q0 -8 -0.5 -19t-3.5 -21t-9.5 -17t-17.5 -7q-10 0 -19 4q-31 9 -32 39q-2 29 -56 31q-7 0 -13 -0.5t-11 -0.5q-13 0 -20 8.5
t-7 20.5q0 13 14.5 27t34.5 26t41.5 20t34.5 8zM490 807q13 0 20.5 -8.5t7.5 -21.5q0 -8 -5 -25q-14 -35 -33 -35q-29 0 -29 29q0 8 3 18t8 20t12 16.5t16 6.5zM580 754q11 0 19 -8t8 -19q0 -8 -5 -18t-12.5 -18.5t-16.5 -14.5t-17 -6q-10 0 -18.5 8t-8.5 18q0 8 5 18
t12.5 19t16.5 15t17 6zM384 777q30 0 31 -45q0 -46 -29 -46t-31 45q0 46 29 46zM605 653q16 0 23 -13q3 -7 3 -13q0 -9 -6 -17.5t-15 -14.5t-19 -10t-18 -4q-11 0 -19.5 8t-8.5 19q0 9 6.5 17t15.5 14t19.5 10t18.5 4z" />
    <glyph glyph-name="eight" unicode="8" horiz-adv-x="866" 
d="M515 732q180 -261 226 -424q14 -54 14 -100q0 -45 -13 -81q-32 -80 -124 -109q-51 -16 -124 -16q-40 0 -86 5q-4 0 -8.5 0.5t-10.5 0.5q-126 13 -189 71q-61 57 -62 147q0 11 1 22v3v6q5 46 47 46h9q46 0 46 -47v-9v-1.5v-4.5q-1 -8 -1 -15q0 -47 29 -72q40 -35 130 -44
q3 0 7 -0.5t10 -0.5l1 -0.5t2 -0.5q41 -5 75 -5q54 0 93 12q45 15 59 49q8 19 7 44q-1 31 -11 73q-33 140 -190 363q-11 -14 -20 -26.5t-17 -22.5q-19 -24 -39 -25q-15 -1 -32 13q-24 16 -24 38q0 15 12 33q27 41 40 53q5 5 9.5 12t9.5 14q-218 321 -218 502v6
q3 221 285 232h0.5h1.5q16 1 32 1q56 0 102 -14q89 -29 118 -114q12 -36 12 -80q0 -48 -14 -107q-41 -165 -195 -427zM178 421q24 15 51 25t39 10q22 0 38 -17q18 -22 22 -53t4 -50q0 -12 -1 -22q-4 -40 -30 -40q-8 0 -18 4q-30 10 -32 39t-56 31q-18 0 -25 -0.5t-8 -0.5
q-13 0 -18 24q-1 3 -1 6q0 21 35 44zM193 546h1q27 0 29 -45q0 -45 -29 -46q-30 0 -30 46v5q0 40 29 40zM309 574q18 -6 18 -26q0 -11 -6 -26q-14 -35 -33 -35q-5 0 -10 2q-18 7 -18 27q0 11 5 26q12 34 33 34q5 0 11 -2zM405 517q10 -9 10 -20q0 -15 -16 -34
q-20 -23 -35 -24q-8 0 -16 7q-10 9 -10 20q0 15 15 34q19 24 35 24q9 0 17 -7zM436 409q4 -7 4 -14q0 -19 -29 -34q-20 -10 -32 -11q-15 -1 -22 14q-3 7 -4 14q-2 18 29 34q19 10 31 11q15 1 23 -14zM462 1371q-186 -8 -187 -131v-3q0 -139 176 -411q127 223 160 357
q12 47 11 83q-1 27 -6 48q-14 35 -54 49q-29 10 -68 9q-14 0 -28 -1h-2.5h-1.5z" />
    <glyph glyph-name="nine" unicode="9" 
d="M135 1049q6 83 39 160t87 136t127.5 94t160.5 35q68 0 133.5 -25t119.5 -68.5t92 -102t52 -125.5q15 -73 15 -153q0 -128 -37.5 -258t-89.5 -245q-59 -130 -122.5 -245t-142.5 -234q-18 -24 -39 -24q-18 0 -38 15t-20 34q0 15 12 33q87 130 162.5 269.5t131.5 284.5
q-51 -37 -108 -57t-120 -20q-69 0 -141 28q-35 12 -35 40q0 20 13 40t35 20q13 0 24 -5q26 -11 50.5 -15.5t50.5 -4.5q95 0 174 58q34 30 62.5 60t57.5 65q-1 -2 -0.5 0t2.5 8q8 40 12 78t4 75q0 53 -8 100.5t-27.5 89.5t-51.5 77.5t-81 64.5q-67 40 -140 40q-79 0 -143 -38
t-108 -103q-30 -49 -47 -102t-17 -110v-23q0 -13 -4.5 -26t-12 -21.5t-16.5 -10.5t-18 7l-51 51v26q0 8 0.5 14.5t0.5 12.5zM300 822q12 0 33 -7t41 -18.5t35 -26t15 -29.5v-5q-4 -15 -10.5 -19t-15.5 -4q-5 0 -11 0.5t-13 0.5q-53 -1 -56 -31q-2 -19 -17 -31t-34 -12
q-11 0 -17.5 7t-9.5 17.5t-3.5 22t-0.5 20.5q0 15 2.5 35t9.5 37.5t19.5 30t32.5 12.5zM376 912q29 0 29 -46q0 -45 -30 -45q-29 0 -29 41q0 16 4.5 33t25.5 17zM270 942q9 0 16 -6.5t12.5 -16.5t8 -20.5t2.5 -18.5q0 -20 -18 -25q-6 -3 -11 -3q-8 0 -15 7t-12 17t-8 20.5
t-3 17.5q0 12 8 20t20 8zM133 775q6 14 22 14q8 0 18 -4t20 -10.5t16.5 -14.5t6.5 -17q0 -5 -4 -13q-9 -13 -24 -13q-7 0 -17.5 4t-20 10t-16 13.5t-6.5 15.5q0 7 5 15zM179 889q8 0 17.5 -6t17 -15t12.5 -19t5 -18q0 -11 -8 -18t-19 -7q-8 0 -17 6t-16.5 14.5t-12.5 18.5
t-5 18q0 9 8.5 17.5t17.5 8.5z" />
    <glyph glyph-name="zero" unicode="0" horiz-adv-x="1148" 
d="M151 919q6 44 46 44q20 0 38 -11.5t18 -34.5q0 -8 -1 -13q-8 -38 -10 -82.5t-2 -82.5q0 -137 28 -250.5t84 -208.5q104 -176 244 -176q139 0 244 176q112 188 112 459q0 270 -112 460q-106 175 -244 175q-47 0 -87 -19.5t-74 -50.5q-19 -17 -35 -17q-19 0 -36.5 19
t-17.5 37q0 19 20 37q47 43 106 70t124 27q99 0 182 -55.5t150 -170.5q126 -214 126 -512t-126 -511q-133 -226 -332 -226q-197 0 -332 226q-127 214 -127 511q0 45 3 90.5t11 89.5zM262 1165q23 0 39 -18q14 -17 19.5 -45.5t5.5 -54.5q0 -9 -0.5 -20t-3.5 -20.5t-9.5 -16.5
t-18.5 -7q-19 0 -33.5 11.5t-15.5 31.5q-2 29 -56 31q-7 0 -13 -0.5t-11 -0.5q-13 0 -20.5 8t-7.5 21t14.5 27t34.5 26t41.5 19.5t34.5 7.5zM408 1132q11 0 18.5 -8.5t7.5 -19.5q0 -9 -6.5 -17t-15.5 -14.5t-19.5 -10t-18.5 -3.5q-16 0 -23 14q-4 5 -4 13t6.5 16.5t16 15
t20 10.5t18.5 4zM187 1255q30 0 30 -45q0 -46 -29 -46q-30 -1 -30 45q0 16 4.5 30.5t24.5 15.5zM260 1250q11 35 33 35q4 0 10 -2q18 -7 18 -27q0 -7 -3 -17.5t-8 -20.5t-12.5 -16.5t-15.5 -6.5q-28 0 -28 28q0 11 6 27zM383 1231q11 0 18.5 -7.5t7.5 -18.5q0 -8 -5 -18
t-12.5 -18.5t-16.5 -14.5t-17 -6q-9 0 -16 7q-11 8 -11 19q0 8 5 18t12.5 18.5t17 14.5t17.5 6z" />
    <glyph glyph-name="period" unicode="." horiz-adv-x="379" 
d="M142 51v6v6q4 19 19 34l3 3q13 13 31 12q3 0 7 -1q20 -5 36 -18q12 -16 12 -36v-3q-2 -25 -19 -36l-3 -2q-15 -10 -30 -12q-4 0 -8 1q-23 1 -36 18q-11 11 -12 28zM236 64v-5.5v-4.5v0.5v1.5v3v5z" />
    <glyph glyph-name="colon" unicode=":" horiz-adv-x="379" 
d="M144 51v12q3 18 19 34l3 3q8 8 17.5 9.5t20.5 1.5q24 0 36 -17.5t12 -39.5q-4 -21 -19 -36l-2 -2q-12 -12 -29 -12q-7 0 -10 1q-20 2 -32 14t-16 32zM145 862q2 10 5.5 19t12.5 15l3 2q17 12 38 12q23 0 35.5 -18.5t12.5 -38.5q0 -11 -5.5 -19.5t-13.5 -16.5l-2 -2
q-8 -8 -18 -10t-21 -2q-24 0 -35.5 19t-11.5 40z" />
    <glyph glyph-name="semicolon" unicode=";" horiz-adv-x="379" 
d="M159 66l3 2q17 12 39 12q29 0 39 -23.5t10 -46.5q0 -42 -31.5 -68.5t-69.5 -34.5h-2q-8 0 -8 7q0 2 3 4q11 14 15 31t4 34l-3 3q-4 4 -5 6q-13 12 -13 33q0 11 4.5 22.5t14.5 18.5zM147 850v12q3 24 19 34l3 2q17 12 38 12q23 0 35.5 -18t12.5 -39q-2 -11 -6.5 -21
t-12.5 -15l-3 -2q-10 -6 -18.5 -9t-19.5 -3q-22 0 -36 19q-10 10 -12 28z" />
    <glyph glyph-name="comma" unicode="," horiz-adv-x="379" 
d="M167 -17l-2 2l-1 1l-6 6q-13 13 -12 32v5q0 21 19 37l3 2q16 11 36 12h3q20 -2 36 -19q6 -9 10 -18q2 -9 2 -16v-4q1 -7 1 -13q0 -35 -24 -61q-25 -25 -78 -42q-1 0 -3 -1q-3 -1 -5 5v2q0 2 1 5q6 18 16 31q11 14 4 29q-1 3 0 5z" />
    <glyph glyph-name="question" unicode="?" horiz-adv-x="931" 
d="M135 1159q8 66 38 122t76.5 97.5t106 65t125.5 23.5q72 0 135 -28t110.5 -75.5t74.5 -110.5t27 -134q0 -85 -40 -161.5t-111 -124.5q-48 -42 -100.5 -95t-97.5 -113.5t-76.5 -126.5t-37.5 -132q-6 -45 -45 -45q-8 0 -12 1q-46 5 -46 46q0 84 32.5 160t83 144t112 127.5
t120.5 110.5q1 1 3 2.5t4 3.5q52 35 80.5 87.5t28.5 115.5q0 51 -19.5 96t-53 78t-78.5 52.5t-95 19.5q-47 0 -89 -16.5t-74.5 -46t-54 -69t-26.5 -86.5q-5 -46 -45 -46q-20 0 -38.5 11.5t-18.5 34.5q0 8 1 12zM320 113q27 0 38 -29q4 -11 10 -32t6 -34q0 -9 -4.5 -19
t-15.5 -10q-12 0 -30 18q-20 20 -33 20q-7 0 -11 -4q-6 -6 -19 -6q-11 0 -22.5 6.5t-11.5 18.5q0 11 11 23.5t26 23t31 17.5t25 7zM245 171q14 0 19.5 -16.5t5.5 -27.5q0 -20 -16 -22q-2 -1 -7 -1q-14 0 -18.5 17t-4.5 28q0 22 21 22zM315 206q17 -3 17 -25q0 -14 -5.5 -28
t-22.5 -14t-17 23q0 14 5 29t23 15zM421 109q8 0 13.5 -5.5t5.5 -13.5q0 -11 -15 -24.5t-26 -13.5q-8 0 -14 5.5t-6 13.5q0 13 15 25.5t27 12.5zM384 183q4 0 10 -3q10 -6 10 -18q0 -11 -10.5 -27.5t-22.5 -16.5q-7 0 -13 6t-6 13q0 11 9.5 28.5t22.5 17.5z" />
    <glyph glyph-name="exclam" unicode="!" horiz-adv-x="498" 
d="M218 360l21 1064q0 51 52 51q50 -2 50 -52l-21 -1065q0 -27 -13 -38.5t-39 -11.5q-50 0 -50 52zM270 113q27 0 38 -29q4 -11 10 -32t6 -34q0 -9 -4.5 -19t-15.5 -10q-12 0 -30 18q-20 20 -33 20q-7 0 -11 -4q-6 -6 -19 -6q-11 0 -22.5 6.5t-11.5 18.5q0 11 11 23.5t26 23
t31 17.5t25 7zM195 171q14 0 19.5 -15t5.5 -26q0 -22 -16 -25q-2 -1 -7 -1q-14 0 -18.5 17t-4.5 28q0 22 21 22zM265 206q17 -3 17 -25q0 -14 -5.5 -28t-22.5 -14t-17 23q0 14 5 29t23 15zM371 109q8 0 13.5 -6t5.5 -14q0 -12 -15 -24.5t-26 -12.5q-8 0 -14 5.5t-6 13.5
q0 13 15 25.5t27 12.5zM334 183q8 0 14 -6.5t6 -14.5q0 -5 -3 -12.5t-7.5 -14.5t-10 -12t-11.5 -5q-8 0 -14.5 6t-6.5 14q0 5 3 13t8 15t10.5 12t11.5 5z" />
    <glyph glyph-name="less" unicode="&#x3c;" 
d="M436 750q35 39 83 39q19 0 46 -8.5t55 -20.5t53 -25.5t40 -23.5q26 -18 50 -37t24 -51v-9.5t-2 -9.5q-14 -50 -41 -49q-14 1 -31 1h-37q-115 -4 -120 -66q-3 -39 -33.5 -65.5t-68.5 -26.5q-24 0 -39 13.5t-22.5 33.5t-10 42.5t-2.5 41.5q0 55 10.5 115.5t45.5 105.5z
M206 715q17 0 39 -8t42.5 -21.5t34.5 -30.5t14 -35q0 -23 -17.5 -41.5t-40.5 -18.5q-16 0 -38.5 8.5t-42.5 22t-34 31t-14 35.5q0 24 16.5 41t40.5 17zM616 884q2 98 65 97q21 0 33 -9.5t18.5 -24t8.5 -32t2 -33.5q0 -98 -65 -96q-62 0 -62 93v5zM260 932q17 0 36.5 -13
t35.5 -32.5t26.5 -40.5t10.5 -38q0 -22 -17.5 -39t-39.5 -17q-17 0 -36 13t-35.5 32t-27 40.5t-10.5 37.5q0 23 17 40t40 17zM453 1045q20 0 35 -14t26 -34.5t16.5 -43t5.5 -39.5q0 -27 -17 -43.5t-43 -16.5q-18 0 -33.5 14.5t-27 34.5t-17.5 43t-6 39q0 27 17.5 43.5
t43.5 16.5z" />
    <glyph glyph-name="greater" unicode="&#x3e;" horiz-adv-x="942" 
d="M250 711q16 11 41 24.5t52 25.5t54 20t47 8q49 0 83 -39q35 -45 45 -104.5t10 -115.5q0 -18 -2 -41t-9.5 -43.5t-21.5 -34t-39 -13.5q-17 0 -34 7q-65 23 -69 85t-120 66h-37t-31 -1q-29 -2 -41 49q-2 5 -2 9.5v9.5q0 32 24 51t50 37zM757 715q24 0 40.5 -17t16.5 -41
q0 -18 -14 -35.5t-34.5 -31t-42.5 -22t-39 -8.5q-23 0 -40.5 19t-17.5 42q0 18 14.5 34.5t35 30t43 21.5t38.5 8zM282 981q63 2 65 -97v-4q0 -94 -62 -94q-64 -1 -65 96v5q0 94 62 94zM704 932q22 0 39 -17.5t17 -39.5q0 -16 -10.5 -37.5t-27 -40.5t-35.5 -32t-36 -13
q-22 0 -40 17t-18 39q0 17 11 38t27.5 40.5t36 32.5t36.5 13zM510 1045q27 0 43.5 -17t16.5 -44q0 -16 -6 -38.5t-17 -43t-26.5 -34.5t-34.5 -14q-26 0 -43 16.5t-17 43.5q0 17 6 39.5t17 42.5t26.5 34.5t34.5 14.5z" />
    <glyph glyph-name="quotesingle" unicode="'" horiz-adv-x="400" 
d="M138 1202l13 211q2 28 15.5 38t39.5 10q47 -5 47 -49v-5l-13 -212q-4 -48 -54 -48q-29 0 -38.5 14.5t-9.5 40.5z" />
    <glyph glyph-name="quotedbl" unicode="&#x22;" horiz-adv-x="574" 
d="M319 1202l13 211q2 27 15 37.5t39 10.5q24 0 36 -13t12 -36v-5l-13 -212q-2 -26 -15.5 -37t-39.5 -11q-28 0 -37.5 15t-9.5 40zM138 1202l13 211q2 28 15.5 38t39.5 10q47 -5 47 -49v-5l-13 -212q-4 -48 -54 -48q-29 0 -38.5 14.5t-9.5 40.5z" />
    <glyph glyph-name="parenleft" unicode="(" horiz-adv-x="953" 
d="M156 902q23 102 71 193.5t117.5 165.5t157.5 128.5t189 82.5q11 3 20 3q23 0 34.5 -18.5t11.5 -39.5q0 -34 -38 -43q-90 -25 -165.5 -72t-134.5 -110.5t-100.5 -142.5t-62.5 -169q-9 -41 -45 -41q-22 0 -39.5 11t-17.5 36q0 4 0.5 7.5t1.5 8.5zM245 529q29 0 43 -35
q56 -143 169.5 -245.5t261.5 -144.5q38 -11 38 -43q0 -21 -12.5 -39t-35.5 -18q-12 0 -18 2q-84 24 -160.5 67t-141 101t-114.5 129.5t-82 153.5q-6 14 -6 26q0 20 20 33t38 13zM192 707q20 0 47.5 -12.5t44.5 -22.5q34 -26 34 -44q0 -11 -8.5 -20.5t-19.5 -9.5
q-5 0 -10.5 0.5t-12.5 0.5q-53 -1 -56 -31q-2 -19 -17 -31t-34 -12q-11 0 -17.5 7t-9.5 17t-3.5 21t-0.5 19q0 15 2.5 35.5t9 38.5t19 31t32.5 13zM47 674q8 0 18.5 -4t20 -10.5t16 -14.5t6.5 -17q0 -11 -8 -19t-19 -8q-14 0 -31 11q-29 15 -29 34q0 11 7.5 19.5t18.5 8.5z
M163 827q9 0 16.5 -6.5t12 -15.5t7 -19.5t2.5 -18.5q0 -13 -7.5 -21t-20.5 -8q-9 0 -16.5 6.5t-12 16.5t-7 20.5t-2.5 18.5q0 27 28 27zM72 774q8 0 17.5 -6t17 -14.5t12.5 -18.5t5 -18q0 -11 -7.5 -18.5t-18.5 -7.5q-8 0 -17 6t-17 14.5t-13 18t-5 17.5q0 11 7.5 19t18.5 8
zM269 797q29 0 29 -46q-1 -45 -31 -45q-28 1 -28 42q0 16 4.5 32.5t25.5 16.5z" />
    <glyph glyph-name="parenright" unicode=")" horiz-adv-x="996" 
d="M243 1472q9 0 21 -3q100 -29 188 -83t158 -128.5t118.5 -165.5t69.5 -193q1 -5 1.5 -8.5t0.5 -7.5q0 -25 -18.5 -36t-40.5 -11q-34 0 -43 42q-19 90 -61 168t-102 141.5t-136 110.5t-163 73q-38 11 -38 42q0 21 10.5 40t34.5 19zM236 102q150 44 261 145t170 245
q12 33 41 33q10 0 25 -5q34 -14 34 -43q0 -8 -5 -23q-28 -84 -77.5 -156t-114.5 -129t-142.5 -99t-163.5 -67q-10 -3 -20 -3q-24 0 -35 19t-11 40q0 32 38 43zM761 704q23 0 39 -17q14 -17 19.5 -46t5.5 -55q0 -8 -0.5 -19t-3.5 -21t-9.5 -17t-17.5 -7q-19 0 -34 11.5
t-16 31.5q-2 29 -56 31q-7 0 -13 -0.5t-11 -0.5q-13 0 -20.5 9t-7.5 21q0 13 14.5 27t34.5 25.5t41.5 19t34.5 7.5zM686 794q30 2 30 -45q0 -44 -29 -46q-21 0 -25.5 17t-4.5 33q0 41 29 41zM759 790q10 34 32 34q13 0 21 -7t8 -21q0 -7 -3 -17.5t-8 -20.5t-12.5 -16.5
t-15.5 -6.5q-28 0 -28 28q0 11 6 27zM907 671q11 0 18.5 -8.5t7.5 -19.5q0 -8 -6.5 -16t-16.5 -14.5t-20 -10.5t-18 -4q-11 0 -18.5 8.5t-7.5 19.5q0 8 6.5 16t16.5 14.5t20.5 10.5t17.5 4zM882 771q10 0 18 -7.5t8 -17.5q0 -7 -5 -17.5t-12.5 -19.5t-16 -15.5t-16.5 -6.5
q-10 0 -19 8.5t-9 18.5q0 8 5.5 17.5t13 18.5t17 15t16.5 6z" />
    <glyph glyph-name="bracketleft" unicode="[" horiz-adv-x="1181" 
d="M290 893q0 24 6 59.5t19.5 68t36 56t54.5 23.5q15 0 46 -14t62 -35t54 -45t23 -44q0 -16 -10 -32.5t-27 -16.5q-11 0 -22.5 2t-25.5 4q-6 1 -11.5 1h-10.5q-63 0 -71 -38q-6 -29 -26.5 -42.5t-48.5 -13.5q-48 0 -48 67zM686 544q25 0 50 -19q18 -15 31.5 -38.5
t22.5 -49.5t14 -53t5 -50q0 -60 -48 -60q-26 0 -46.5 13t-28.5 39q-9 34 -60 34q-20 0 -40.5 -3.5t-40.5 -8.5q-2 0 -2.5 -0.5t-2.5 -0.5q-14 0 -24.5 18.5t-10.5 31.5q0 17 21 42t50 48.5t59.5 40t50.5 16.5zM180 1076q12 0 27.5 -7.5t29.5 -19t23.5 -25.5t9.5 -26
q0 -16 -13.5 -28t-28.5 -12q-24 0 -51 23q-38 27 -38 53q0 17 12 29.5t29 12.5zM645 670q9 63 47 63q26 0 35.5 -14.5t9.5 -39.5q0 -5 -0.5 -11t-1.5 -13q-12 -62 -47 -62q-7 0 -10 1q-36 6 -36 48q0 13 3 28zM911 533q16 0 28 -12.5t12 -28.5q0 -12 -9 -26t-22.5 -26
t-28.5 -20t-27 -8q-16 0 -28 12.5t-12 28.5q0 12 9 26t22.5 26t28.5 20t27 8zM240 1224q13 0 25.5 -10t22.5 -24.5t16.5 -30t6.5 -27.5q0 -16 -13.5 -28.5t-29.5 -12.5q-12 0 -25 10.5t-23 25t-16.5 30.5t-6.5 27q0 17 13.5 28.5t29.5 11.5zM843 678q17 0 30 -12t13 -29
q0 -12 -6 -28t-16 -30.5t-22.5 -24.5t-25.5 -10q-17 0 -29.5 11.5t-12.5 28.5q0 12 6 28t16 30.5t22.5 25t24.5 10.5zM548 1221q37 -6 37 -53q0 -12 -2 -27t-7.5 -28.5t-15 -22.5t-24.5 -9q-26 0 -35.5 14.5t-9.5 38.5q0 15 2 30t8.5 28t17.5 21t29 8zM386 1288q35 0 50 -60
q3 -16 3 -30q0 -22 -10 -35.5t-33 -13.5q-15 0 -25 10t-16 24t-9 30t-3 28q0 21 11 34t32 13zM533 656q3 1 8 1q15 0 25 -9t16.5 -22.5t9.5 -29t3 -27.5q0 -22 -10.5 -36.5t-33.5 -14.5q-15 0 -25 9.5t-16 23t-8.5 28.5t-2.5 27q0 42 34 50z" />
    <glyph glyph-name="bracketright" unicode="]" horiz-adv-x="1181" 
d="M763 1092q33 0 54.5 -22.5t35 -54.5t19.5 -67.5t7 -61.5q0 -68 -47 -68q-9 0 -21 3q-47 9 -56 53q-8 38 -68 38q-17 0 -36 -1.5t-36 -5.5q-2 0 -2.5 -0.5t-2.5 -0.5q-17 0 -28 31q-4 9 -4 20q0 17 21.5 40.5t51.5 45t61.5 36.5t50.5 15zM482 536q16 0 36 -9t40 -22
t37.5 -27t27.5 -25q14 -14 27.5 -29t13.5 -34q0 -14 -10.5 -32.5t-24.5 -18.5q-2 0 -2.5 0.5t-2.5 0.5q-11 0 -22.5 3.5t-25.5 5.5q-18 3 -33 3q-52 0 -61 -34q-7 -27 -27.5 -39.5t-46.5 -12.5q-48 0 -48 58q0 24 7 60t22 70t38 58t55 24zM325 669q13 0 25.5 -10t22.5 -24.5
t16 -30.5t6 -28q0 -17 -13 -29t-30 -12q-13 0 -25 10.5t-22 25t-16 30.5t-6 28q0 17 12.5 28.5t29.5 11.5zM782 1280q21 0 32.5 -13t11.5 -34q0 -12 -3 -28t-9.5 -30t-16.5 -24t-24 -10q-22 0 -33 12.5t-11 34.5q0 12 3 28t9.5 30t16.5 24t24 10zM876 1174q26 42 54 42
q17 0 29 -11t12 -28q0 -12 -6.5 -28t-16.5 -30.5t-22.5 -25t-24.5 -10.5q-16 0 -30 12.5t-14 29.5q0 21 19 49zM476 725q15 0 24.5 -9.5t15.5 -23t8.5 -29t2.5 -27.5q0 -23 -11 -37t-34 -14q-15 0 -24.5 9.5t-15.5 23t-8.5 28.5t-2.5 27q0 23 10.5 37.5t34.5 14.5zM228 510
q12 15 29 15q12 0 27.5 -8t29 -20t22.5 -26.5t9 -26.5q0 -16 -12.5 -28t-28.5 -12q-12 0 -27 8t-28.5 20t-22.5 26t-9 26q0 15 11 26zM937 1046q31 22 51 22q17 0 29 -12.5t12 -29.5q0 -12 -9.5 -25.5t-23.5 -25t-29 -18.5t-27 -7q-15 0 -28 12.5t-13 27.5q0 26 38 56z
M627 649q6 0 9 -1q34 -7 34 -50q0 -12 -3 -27t-9 -28.5t-16 -23t-25 -9.5q-21 0 -32 15t-11 35q0 12 2.5 27.5t8.5 29t16.5 23t25.5 9.5zM629 1214q14 0 23.5 -9t15 -22t8 -28t2.5 -26q0 -49 -37 -55q-18 0 -29.5 8t-17.5 21t-8 28t-2 30q0 22 10.5 37.5t34.5 15.5z" />
    <glyph glyph-name="braceleft" unicode="{" horiz-adv-x="1213" 
d="M538 1101q77 0 144 -29t116.5 -78.5t78.5 -116.5t29 -144q0 -76 -29 -143.5t-78.5 -117t-116.5 -78.5t-144 -29q-76 0 -143.5 29t-117 78.5t-78.5 117t-29 143.5q0 77 29 144t78.5 116.5t117 78.5t143.5 29zM445 514q38 0 58 32q12 19 38 19q27 0 62 -19
q13 -7 23.5 -12.5t20.5 -10.5q5 -3 11 -3q17 0 31 18.5t14 34.5q0 15 -10 36.5t-24 43t-29 41t-24 30.5q-31 36 -68 36q-26 0 -50.5 -16.5t-45.5 -41t-36.5 -52t-24.5 -49.5q-10 -23 -10 -41q0 -26 20.5 -36t43.5 -10zM368 683q17 0 31 12t14 30q0 12 -7 28t-17.5 30
t-23.5 24t-26 10q-11 0 -22 -6q-20 -14 -20 -36q0 -12 6.5 -27.5t16.5 -30t23 -24.5t25 -10zM706 686q13 0 25.5 10.5t22.5 25t16 31t6 28.5q0 18 -12.5 29.5t-29.5 11.5q-30 0 -54 -45q-17 -27 -17 -49q0 -17 13 -29.5t30 -12.5zM458 794q25 0 34.5 14t9.5 38
q0 12 -2.5 27.5t-8.5 29.5t-15.5 23.5t-23.5 9.5q-23 0 -35 -14.5t-12 -37.5q0 -12 3 -28t9 -29.5t16 -23t25 -9.5zM595 802q2 0 4.5 -0.5t4.5 -0.5q15 0 24.5 9.5t15 23t7.5 28.5t2 27q0 23 -10.5 38.5t-35.5 15.5q-15 0 -24.5 -9.5t-15 -23t-7.5 -29t-2 -27.5
q0 -49 37 -52z" />
    <glyph glyph-name="braceright" unicode="}" horiz-adv-x="1040" 
d="M543 1101q77 0 144 -29t116.5 -78.5t78.5 -116.5t29 -144q0 -76 -29 -143.5t-78.5 -117t-116.5 -78.5t-144 -29t-144 28.5t-117 78.5t-79 117t-29 144t29 144t79 117t117 78.5t144 28.5zM450 514q38 0 58 32q12 19 38 19q27 0 62 -19q13 -7 23.5 -12.5t20.5 -10.5
q5 -3 11 -3q17 0 31 18.5t14 34.5q0 15 -10 36.5t-24 43t-29 41t-24 30.5q-31 36 -69 36q-26 0 -50.5 -16.5t-45 -41t-36.5 -52t-25 -49.5q-10 -25 -10 -40q0 -27 21 -37t44 -10zM463 794q25 0 34.5 14t9.5 38q0 12 -2.5 27.5t-8.5 29.5t-16 23.5t-25 9.5q-23 0 -34 -15
t-11 -37q0 -12 2.5 -28t9 -29.5t16.5 -23t25 -9.5zM373 683q17 0 31 12t14 30q0 12 -7 28t-17.5 30t-23.5 24t-26 10q-11 0 -22 -6q-20 -14 -20 -35q0 -12 6.5 -28t16.5 -30.5t22.5 -24.5t25.5 -10zM710 687q13 0 26 10t23 24.5t16 31t6 28.5q0 17 -13 29.5t-30 12.5
q-13 0 -25.5 -10.5t-22.5 -25t-16 -31t-6 -28.5q0 -17 12.5 -29t29.5 -12zM600 802q2 0 4 -0.5t4 -0.5q15 0 24.5 9.5t15.5 23t8 28.5t2 27q0 23 -10.5 38.5t-35.5 15.5q-15 0 -24.5 -9.5t-15 -23t-7.5 -29t-2 -27.5q0 -49 37 -52z" />
    <glyph glyph-name="slash" unicode="/" horiz-adv-x="942" 
d="M138 76l601 1363q15 33 43 33q12 0 25 -6q32 -17 32 -43q0 -11 -6 -25l-601 -1364q-15 -32 -43 -32q-20 0 -38.5 13t-18.5 34q0 12 6 27z" />
    <glyph glyph-name="backslash" unicode="\" horiz-adv-x="942" 
d="M189 1472q27 0 43 -33l601 -1363q6 -15 6 -27q0 -23 -18.5 -34.5t-38.5 -11.5q-30 0 -43 31l-601 1364q-6 14 -6 26q0 21 18.5 34.5t38.5 13.5z" />
    <glyph glyph-name="bar" unicode="|" horiz-adv-x="444" 
d="M171 1576q0 51 51 51t51 -51v-1558q0 -51 -51 -51t-51 51v1558z" />
    <glyph glyph-name="plus" unicode="+" horiz-adv-x="823" 
d="M135 663q0 51 51 51h159v260q0 52 51 52t51 -52v-260h172q51 0 51 -51q0 -52 -51 -52h-172v-276q0 -51 -51 -51t-51 51v276h-159q-51 0 -51 52z" />
    <glyph glyph-name="equal" unicode="=" horiz-adv-x="823" 
d="M137 553q0 52 51 52h452q51 0 51 -52q0 -51 -51 -51h-452q-51 0 -51 51zM137 904q0 51 51 51h452q51 0 51 -51q0 -52 -51 -52h-452q-51 0 -51 52z" />
    <glyph glyph-name="hyphen" unicode="-" horiz-adv-x="823" 
d="M137 757q0 51 51 51l464 -4q51 -1 51 -52q-1 -50 -52 -50l-463 4q-51 0 -51 51z" />
    <glyph glyph-name="underscore" unicode="_" horiz-adv-x="942" 
d="M73 57q2 51 71 51l642 -4q70 -1 70 -52q-1 -32 -22.5 -41t-48.5 -9l-642 4q-70 0 -70 51z" />
    <glyph glyph-name="asterisk" unicode="*" horiz-adv-x="476" 
d="M246 1338q12 0 33 -7t41 -18.5t35 -26t15 -29.5v-5q-4 -15 -10.5 -19t-15.5 -4q-5 0 -11 0.5t-13 0.5q-53 -1 -56 -31q-2 -19 -17 -31t-34 -12q-11 0 -17.5 7t-9.5 17t-3.5 21t-0.5 19q0 15 2.5 35.5t9.5 38.5t19.5 31t32.5 13zM126 1405q8 0 17 -6t16.5 -15t12.5 -18.5
t5 -17.5q0 -11 -8 -19t-19 -8q-8 0 -17 6t-16.5 14.5t-12.5 18.5t-5 18q0 11 8 19t19 8zM101 1305q8 0 18 -4t19.5 -11t16 -15t6.5 -16q0 -11 -8 -19t-19 -8q-8 0 -18.5 4t-19.5 10.5t-15.5 14.5t-6.5 16q0 11 8 19.5t19 8.5zM214 1457q10 0 17.5 -6.5t13 -16t8 -20
t2.5 -18.5q0 -19 -18 -25q-6 -3 -12 -3q-20 0 -31 35q-6 17 -6 28q0 26 26 26zM322 1428q29 0 29 -46q-1 -45 -30 -45t-29 41q0 16 4.5 33t25.5 17z" />
    <glyph glyph-name="ampersand" unicode="&#x26;" horiz-adv-x="1072" 
d="M133 579q2 127 62.5 233t168.5 172q-12 13 -20 26q-55 73 -55 169q0 60 23.5 113t63 92t92.5 62t112 23q14 0 34.5 -1.5t39.5 -7.5t33 -17t14 -30q0 -21 -11 -40t-35 -19q-5 0 -10 1t-11 3q-14 4 -28.5 6.5t-28.5 2.5q-38 0 -71.5 -15t-59 -40.5t-40.5 -60t-15 -72.5
q0 -40 15 -74.5t40.5 -59.5t60.5 -39.5t74 -14.5q30 0 53 8q11 4 22 4q23 0 34 -19t11 -39q0 -33 -37 -43q-44 -14 -85 -14q-33 0 -63.5 8t-60.5 21q-101 -47 -159.5 -137.5t-60.5 -201.5q0 -57 16.5 -111t47.5 -100.5t74.5 -82.5t97.5 -56q22 -9 40 -14.5t35.5 -8
t36.5 -3.5t41 -1q-5 5 -6 8q-27 47 -27 97q0 39 14.5 74t40 61.5t60 41.5t73.5 15q40 0 75.5 -14.5t62 -40t42 -60t15.5 -74.5q0 -16 -3 -33q-5 -19 -14 -28q-35 -35 -74.5 -63t-85.5 -48v-247q0 -51 -51 -51t-51 51v216q-46 -8 -86 -8q-100 0 -187 38t-151 103.5t-101 153
t-37 186.5zM746 226q73 29 125 81q0 40 -26.5 64.5t-64.5 24.5t-62 -27t-24 -63q0 -26 14.5 -47.5t37.5 -32.5z" />
    <glyph glyph-name="asciicircum" unicode="^" horiz-adv-x="606" 
d="M125 1220l129 227q16 28 40 28q12 0 30 -8q14 -11 20 -21q20 -36 39.5 -72t38.5 -73q5 -10 16 -31.5t28 -55.5q7 -17 7 -28q0 -21 -19 -34.5t-39 -13.5q-26 0 -41 30q-18 36 -28 56.5t-16 32.5q-5 10 -13 25.5t-19 35.5l-85 -148q-16 -28 -40 -28q-12 0 -29 9
q-29 14 -29 38q0 14 10 31z" />
    <glyph glyph-name="percent" unicode="%" horiz-adv-x="1202" 
d="M146 90l860 1354q17 26 39 26q19 0 38.5 -15t19.5 -35q0 -14 -11 -31l-860 -1354q-18 -27 -40 -27q-18 0 -37.5 15.5t-19.5 34.5q0 15 11 32zM312 1040q12 0 33 -7t41 -18.5t35 -26t15 -29.5v-5q-4 -15 -10.5 -19t-15.5 -4q-5 0 -11 0.5t-13 0.5q-53 -3 -56 -31
q-2 -19 -15.5 -31t-32.5 -12q-12 0 -19 6.5t-10 16.5t-4 21t-1 20q0 15 2.5 35.5t9.5 38.5t19.5 31t32.5 13zM861 440q23 0 39 -18q14 -17 19.5 -45.5t5.5 -54.5q0 -8 -0.5 -19t-3.5 -21t-9.5 -17t-17.5 -7q-19 0 -34 11.5t-16 31.5q-2 29 -56 31q-7 0 -13 -0.5t-11 -0.5
q-13 0 -20.5 8t-7.5 21t14.5 27t34.5 26t41.5 19.5t34.5 7.5zM946 361q0 8 6.5 16t16 15t20 11t17.5 4q11 0 19.5 -8t8.5 -19q0 -8 -6.5 -16.5t-15.5 -15t-19.5 -11t-18.5 -4.5q-11 0 -19.5 8.5t-8.5 19.5zM388 1130q29 0 29 -46q0 -45 -30 -45q-29 0 -29 41q0 16 4.5 33
t25.5 17zM167 1007q8 0 18 -4t19.5 -11t16 -15t6.5 -16q0 -11 -8 -19t-19 -8q-8 0 -18.5 4t-19.5 10.5t-15.5 14.5t-6.5 16q0 11 8 19.5t19 8.5zM757 484q0 46 29 46q21 0 25.5 -16.5t4.5 -32.5q0 -42 -29 -42q-30 0 -30 45zM281 1160q9 0 16.5 -6.5t12.5 -16.5t8 -20.5
t3 -18.5q0 -19 -18 -25q-6 -3 -12 -3q-20 0 -31 35q-6 15 -6 27q0 11 7.5 19.5t19.5 8.5zM191 1107q8 0 17.5 -6t17 -15t12.5 -19t5 -18q0 -12 -10 -19q-7 -7 -17 -7q-8 0 -17 6t-16.5 14.5t-12.5 18.5t-5 18q0 10 8 18.5t18 8.5zM941 430q-11 8 -11 19q0 8 5 18t13 19
t17 15t17 6q10 0 18 -8.5t8 -18.5q0 -14 -15 -34q-20 -23 -35 -23q-10 0 -17 7zM871 473q-18 5 -18 25q0 8 2.5 18.5t8 20.5t12.5 16.5t16 6.5q13 0 20 -8t7 -21q0 -7 -2.5 -17.5t-7.5 -20.5t-11.5 -16.5t-15.5 -6.5q-5 0 -11 3z" />
    <glyph glyph-name="dollar" unicode="$" horiz-adv-x="845" 
d="M372 1217v59q0 51 51 51t51 -51v-55q3 -1 7 -2t8 -1q55 -10 101 -35t81 -69q15 -18 15 -35q0 -18 -18.5 -35t-36.5 -17q-20 0 -38 21q-46 55 -119 70v-412q11 -1 25 -10q50 -16 92 -44.5t72 -67t46.5 -86t16.5 -100.5q0 -56 -18.5 -107t-51.5 -91.5t-79.5 -68.5
t-102.5 -39v-44q0 -50 -51 -50t-51 50v41q-2 0 -12 2q-110 23 -182 105q-15 17 -15 33q0 19 18 36t37 17q20 0 38 -20q45 -55 116 -69v411q-14 3 -21 10q-50 13 -92 42t-72 69t-47 88t-17 99q0 56 18.5 106t51.5 90.5t78.5 68.5t100.5 40zM624 397q0 71 -42 123.5t-108 75.5
v-399q32 7 59.5 27t47.5 47.5t31.5 60.5t11.5 65zM323 737q16 -12 49 -23v398q-48 -20 -80 -46t-52 -77q-15 -37 -15 -74q0 -54 26 -102t72 -76z" />
    <glyph glyph-name="at" unicode="@" horiz-adv-x="1116" 
d="M565 993q99 0 181.5 -35t142.5 -96.5t93.5 -144.5t33.5 -179q0 -36 -5 -89.5t-20.5 -104t-43 -86.5t-72.5 -36q-40 0 -66.5 21.5t-49.5 51.5q-52 67 -86 134q-54 -97 -148 -97h-15.5t-15.5 2q-35 4 -66.5 21.5t-55 44.5t-37.5 60.5t-14 68.5q0 79 93 148
q43 32 116.5 49.5t179.5 17.5q10 0 19.5 -0.5t20.5 -0.5q50 0 50 -52q0 -36 -18.5 -43t-48.5 -7q-87 0 -146 -8t-93 -26q-71 -38 -71 -79q0 -18 8.5 -34.5t22.5 -30t31 -21.5t35 -8q71 0 92 141q6 44 46 44q31 0 50 -27q0 -1 1 -2v-1q1 -2 1.5 -4t2.5 -5q8 -15 24.5 -51
t43.5 -91q55 -111 93 -114q18 -1 37 156q3 29 3 56q0 75 -25 140t-71 113t-109 75t-140 27q-82 0 -144 -31t-104 -82.5t-63.5 -120t-21.5 -143.5q0 -73 22 -146.5t64.5 -131.5t105.5 -94.5t144 -36.5q38 0 78 9q5 1 8.5 1.5t7.5 0.5q24 0 35.5 -17.5t11.5 -39.5
q0 -36 -42 -45q-26 -6 -51 -8t-48 -2q-104 0 -185.5 44.5t-138 116.5t-86 164t-29.5 187q0 97 30 183.5t86.5 152t136.5 103.5t179 38z" />
    <glyph glyph-name="asciitilde" unicode="~" horiz-adv-x="845" 
d="M137 711q22 61 54 86.5t72 25.5q26 0 53 -9t53.5 -23t51 -30t44.5 -30q36 -25 70 -45.5t55 -20.5q28 -1 32 120q3 49 53 49q27 0 38.5 -13.5t11.5 -39.5q0 -37 -4.5 -75.5t-19 -70t-42 -52t-73.5 -20.5q-43 1 -88 26.5t-90 57.5q-30 20 -60 39t-55 28q-9 3 -17 3
q-28 0 -42 -39q-13 -36 -42 -36q-13 0 -23 5q-36 12 -36 41q0 12 4 23z" />
    <glyph glyph-name="grave" unicode="`" horiz-adv-x="400" 
d="M186 1494q29 0 43 -34l48 -126q5 -15 5 -24q0 -21 -19.5 -34.5t-39.5 -13.5q-27 0 -41 35l-48 126q-6 14 -6 25q0 21 19.5 33.5t38.5 12.5z" />
    <glyph glyph-name="numbersign" unicode="#" horiz-adv-x="986" 
d="M137 64l83 426h-34q-52 0 -52 51t52 51h54l38 195h-92q-52 0 -52 51t52 51h111l77 395q8 42 44 42q21 0 39.5 -11t18.5 -35q0 -4 -0.5 -7.5t-1.5 -8.5l-72 -375h214l76 395q9 41 45 41q22 0 40 -10t18 -36q0 -5 -2 -15l-73 -375h72q51 0 51 -51t-51 -51h-92l-38 -195h130
q51 0 51 -51t-51 -51h-149l-87 -445q-8 -42 -46 -42q-21 0 -38.5 10.5t-17.5 34.5q0 4 0.5 7.5t1.5 8.5l82 426h-214l-86 -445q-9 -42 -48 -42q-20 0 -37.5 11t-17.5 34q0 4 0.5 7.5t1.5 8.5zM344 592h214l38 195h-214z" />
    <glyph glyph-name="T" unicode="T" horiz-adv-x="910" 
d="M49 1541q0 51 51 51h742q51 0 51 -51t-51 -51h-301v-328q0 -51 -51 -51t-51 51v328h-339q-51 0 -51 51zM439 55v511q0 51 51 51t51 -51v-511q0 -51 -51 -51t-51 51zM485 910q15 0 44 -9.5t57.5 -25t50 -35t21.5 -39.5q0 -19 -9.5 -31.5t-29.5 -12.5q-8 0 -16 1t-16 1
q-76 -3 -79 -43q-2 -27 -22.5 -43.5t-46.5 -16.5q-15 0 -24 9t-13.5 22.5t-6 28t-1.5 26.5q0 22 3.5 51t13 55t27.5 44t47 18zM336 639q0 24 24 24t24 -24v-593q0 -24 -24 -24t-24 24v593zM336 1126v303q0 24 24 24t24 -24v-303q0 -24 -24 -24t-24 24zM548 972q0 65 42 63
q27 0 33.5 -21.5t6.5 -42.5q0 -63 -42 -63q-27 1 -33.5 21.5t-6.5 42.5zM281 863q11 0 25.5 -5.5t27.5 -14t22 -20t9 -23.5q0 -14 -10 -26t-25 -12q-10 0 -25 5.5t-28.5 14.5t-23 20t-9.5 22q0 15 10.5 27t26.5 12zM316 1003q11 0 23.5 -8.5t23.5 -20.5t18 -26t7 -25
q0 -14 -11 -25t-25 -11q-11 0 -24 8.5t-24 20.5t-18.5 26t-7.5 24q0 14 12 25.5t26 11.5zM441 1077q13 0 23 -9t17 -22t10.5 -28t3.5 -26q0 -17 -10 -28t-27 -11q-13 0 -23 9t-17 22.5t-11 28.5t-4 26q0 17 10.5 27.5t27.5 10.5z" />
  </font>
</defs>
</svg>
