<?xml version="1.0" standalone="no"?>
<!DOCTYPE svg PUBLIC "-//W3C//DTD SVG 20010904//EN"
 "http://www.w3.org/TR/2001/REC-SVG-20010904/DTD/svg10.dtd">
<svg version="1.0" xmlns="http://www.w3.org/2000/svg"
 width="717.000000pt" height="717.000000pt" viewBox="0 0 717.000000 717.000000"
 preserveAspectRatio="xMidYMid meet">
<metadata>
Created by potrace 1.14, written by Peter Selinger 2001-2017
</metadata>
<g transform="translate(0.000000,717.000000) scale(0.100000,-0.100000)"
fill="#000000" stroke="none">
<path d="M948 6442 c-15 -9 -30 -24 -34 -32 -10 -28 -4 -251 11 -353 22 -155
58 -266 130 -400 27 -49 119 -185 150 -220 6 -7 33 -39 60 -72 67 -80 52 -64
215 -230 107 -110 153 -150 177 -156 21 -4 33 -3 33 4 0 6 2 8 5 5 8 -7 -160
-399 -247 -578 -39 -80 -79 -170 -90 -200 -33 -97 -49 -216 -46 -353 3 -123 4
-128 25 -134 53 -13 66 6 142 214 32 88 95 230 139 314 44 85 90 179 102 209
12 30 28 69 35 85 7 17 50 137 95 267 80 235 106 350 89 395 -16 42 -76 56
-117 27 -25 -17 -29 -34 -8 -34 11 0 4 -19 -22 -64 l-37 -65 -18 47 c-10 26
-25 54 -33 63 -8 8 -14 21 -14 27 0 6 -6 15 -13 19 -12 7 -80 94 -239 304
-153 202 -238 406 -273 650 -20 139 -21 132 15 114 16 -8 34 -15 41 -15 6 0
58 -22 115 -50 57 -27 106 -50 109 -50 7 0 240 -117 610 -306 579 -295 970
-487 999 -488 16 0 31 4 33 10 3 9 -114 89 -352 239 -27 18 -104 63 -170 102
-66 38 -154 89 -195 114 -41 24 -84 48 -95 52 -11 4 -22 12 -25 16 -3 5 -24
18 -47 30 -23 11 -44 25 -47 30 -4 5 -48 32 -99 60 -115 63 -148 83 -165 99
-7 6 -19 12 -25 12 -7 0 -37 16 -67 36 -30 20 -56 35 -58 34 -1 0 -44 19 -95
43 -51 25 -121 57 -157 73 -36 15 -68 33 -72 39 -4 5 -8 6 -8 1 0 -5 -7 -3
-15 4 -8 7 -15 9 -15 5 0 -4 -6 -3 -12 3 -7 5 -51 22 -98 37 -111 35 -280 44
-322 17z"/>
<path d="M5664 5519 c-157 -20 -341 -77 -1019 -314 -104 -37 -225 -78 -267
-92 l-77 -25 -203 42 c-112 23 -261 55 -333 71 -365 84 -559 110 -630 87 -60
-20 -58 -45 7 -85 54 -34 73 -36 45 -5 -10 10 -17 22 -17 25 0 17 79 2 337
-64 384 -98 579 -136 784 -154 80 -7 119 3 119 30 0 8 3 14 8 13 35 -9 242 47
637 173 138 43 277 88 310 98 261 83 476 117 582 92 65 -15 182 -61 216 -84
15 -10 27 -27 27 -37 0 -36 -57 -174 -155 -375 -123 -253 -160 -348 -190 -499
-41 -210 -51 -316 -36 -394 7 -37 13 -80 13 -97 0 -34 12 -45 49 -45 49 0 65
27 129 225 72 219 118 335 225 565 202 433 225 492 225 593 0 59 -1 62 -46
104 -26 24 -52 43 -59 43 -7 0 -18 6 -24 13 -6 8 -28 19 -50 26 -22 6 -56 19
-78 28 -46 20 -37 18 -153 37 -99 17 -272 19 -376 5z"/>
<path d="M1788 4285 c-8 -9 3 -45 13 -45 5 0 9 6 9 13 0 17 -15 39 -22 32z"/>
<path d="M3050 4197 c-51 -18 -80 -67 -80 -136 0 -166 78 -221 338 -241 75 -6
146 -13 158 -16 16 -4 33 -30 65 -102 23 -53 71 -140 105 -194 34 -53 61 -99
58 -102 -2 -3 -1 -4 2 -2 3 3 33 -31 66 -74 83 -111 170 -196 231 -226 42 -22
69 -27 151 -31 91 -5 109 -3 180 21 43 15 106 41 140 58 33 17 77 39 96 49
107 54 338 241 384 311 11 17 32 30 61 37 24 6 47 16 50 22 14 21 -5 55 -38
71 -33 16 -303 73 -747 158 -118 22 -294 56 -390 75 -96 19 -224 41 -285 50
-60 9 -124 20 -140 24 -17 4 -39 4 -50 0 -30 -12 -81 -10 -110 3 -24 11 -25
14 -25 107 -1 60 -5 102 -13 112 -28 36 -137 50 -207 26z m883 -459 c31 -8 47
-17 47 -27 0 -25 67 -152 97 -187 50 -57 106 -84 171 -84 33 0 73 5 90 11 17
6 45 9 64 7 l33 -3 -55 -35 c-30 -19 -57 -37 -60 -41 -6 -7 -106 -74 -159
-106 l-35 -21 -33 25 c-19 15 -32 32 -29 39 3 8 0 11 -8 8 -7 -3 -32 19 -57
47 -24 29 -61 70 -82 93 -20 23 -58 72 -85 111 -26 38 -53 76 -59 83 -12 12
-83 129 -83 136 0 3 57 -10 243 -56z"/>
<path d="M1632 4154 c-14 -10 -22 -25 -22 -45 0 -26 68 -187 105 -249 8 -14
30 -54 48 -90 17 -36 35 -66 40 -68 4 -2 7 -9 7 -15 0 -19 86 -128 117 -148
21 -14 47 -19 102 -19 129 0 184 44 210 168 14 67 14 212 0 249 -7 20 -7 29 1
31 6 2 23 14 36 26 23 19 25 25 17 71 -10 61 -31 69 -73 26 -28 -28 -31 -28
-40 -11 -6 10 -10 26 -10 34 0 25 -41 44 -105 49 -47 3 -66 0 -87 -15 -16 -11
-28 -26 -28 -34 0 -18 4 -19 -83 21 -63 29 -87 35 -144 35 -46 0 -76 -5 -91
-16z m371 -296 c-4 -89 -14 -83 -97 65 l-26 48 62 -35 c62 -36 63 -36 61 -78z"/>
<path d="M1422 3493 c-4 -10 -7 -117 -7 -238 0 -174 4 -237 18 -303 34 -158
102 -334 219 -567 109 -215 226 -350 345 -395 98 -36 93 -37 93 13 0 28 -6 49
-15 57 -56 46 -309 521 -409 765 -54 134 -100 302 -121 450 -20 137 -35 206
-48 223 -15 19 -66 15 -75 -5z"/>
<path d="M2137 3432 c-22 -24 -17 -63 16 -127 12 -22 20 -43 19 -47 -1 -5 3
-8 8 -8 6 0 10 -5 10 -10 0 -21 269 -418 286 -424 17 -5 19 -18 19 -148 0
-100 -4 -150 -13 -166 -8 -13 -16 -22 -18 -19 -4 4 -49 -40 -167 -165 -19 -20
-38 -34 -42 -30 -3 4 -5 2 -4 -3 2 -6 -1 -21 -5 -34 -13 -38 22 -61 90 -61 69
0 111 18 168 70 28 26 50 39 58 34 39 -21 127 -93 153 -123 47 -54 110 -116
143 -139 34 -25 110 -30 130 -10 15 15 16 54 2 71 -36 44 -105 122 -161 183
-66 72 -79 101 -96 219 -2 16 -10 44 -18 60 -11 25 -65 215 -65 230 0 3 10 5
23 5 69 1 333 103 379 147 33 32 35 46 7 72 -20 19 -27 19 -109 6 -19 -3 -88
-13 -154 -22 l-118 -17 -29 35 c-16 19 -55 68 -86 109 -58 75 -70 90 -179 210
-91 100 -106 111 -172 117 -49 5 -60 2 -75 -15z"/>
<path d="M2090 1887 c0 -51 179 -244 315 -338 95 -67 123 -81 235 -122 73 -26
103 -31 206 -35 103 -4 125 -2 148 13 43 28 34 50 -31 73 -71 25 -83 27 -106
17 -36 -15 -236 64 -387 154 -77 46 -128 84 -231 174 -68 58 -97 77 -119 77
-18 0 -30 -5 -30 -13z"/>
<path d="M2210 1865 c7 -8 17 -15 22 -15 6 0 5 7 -2 15 -7 8 -17 15 -22 15 -6
0 -5 -7 2 -15z"/>
<path d="M3297 1343 c-16 -15 -4 -34 31 -49 33 -14 285 -88 336 -99 12 -2 75
-18 141 -35 223 -58 418 -85 451 -62 6 4 13 15 17 24 7 18 -22 43 -78 67 -16
7 -65 35 -107 62 -60 38 -83 48 -103 43 -27 -7 -32 -23 -13 -42 16 -16 15 -16
-115 12 -184 40 -469 86 -531 86 -12 0 -26 -3 -29 -7z"/>
</g>
</svg>
